<?xml version="1.0" encoding="UTF-8"?><svg id="_레이어_1" xmlns="http://www.w3.org/2000/svg" viewBox="0 0 133 121"><defs><style>.cls-1{fill:#ed7662;}.cls-2{fill:#fff;}</style></defs><path class="cls-1" d="M104,104.25l-.59-.35c-13.45-8.07-34.2-1.08-40.01,13.49l-.25,.64-.18-.61c-4.16-13.88-24.25-18.04-38.76-8.02l-.63,.44,.29-.63c6.72-14.38-5.05-28.11-22.7-26.48l-.77,.07,.66-.41c15.04-9.39,16.09-27.45,2.03-34.82l-.61-.32,.77-.04c17.61-.82,31.08-16.3,25.98-29.86l-.22-.59,.59,.35c13.45,8.07,34.2,1.08,40.01-13.49l.25-.64,.18,.61c4.16,13.88,24.25,18.04,38.76,8.02l.63-.44-.29,.63c-6.72,14.38,5.05,28.11,22.7,26.48l.77-.07-.66,.41c-15.04,9.39-16.09,27.45-2.03,34.82l.61,.32-.77,.04c-17.61,.82-31.08,16.3-25.98,29.86l.22,.59Z"/><g><path class="cls-2" d="M30.52,65.35c-.03,.76-.18,1.52-.44,2.15l.75-.07-.08,1.6-7.84,.76,.74-12.01,7.37-.71-.49,8.28Zm-4.97-6.08l-.64,8.73,3.35-.32c.16-.62,.25-1.19,.31-1.96l.42-6.77-3.43,.33Zm12.12-5.28l1.92-.18-1.19,20.05-1.92,.18,.61-10.36-2.49,.24-.55,9.02-1.94,.19,1.12-18.26,1.94-.19-.48,7.72,2.49-.24,.48-8.18Z"/><path class="cls-2" d="M43.57,65.68l-.9-1.48c2.99-1.6,5.16-3.85,5.47-7.97l-4.6,.44,.1-1.62,10.74-1.03-.12,1.63-4.13,.4c-.06,.74-.18,1.48-.29,2.09,.58,3.11,2.57,4.1,4.84,4.52l-.74,1.66c-2.13-.42-4.21-1.75-5.11-3.9-.86,2.25-2.86,4-5.26,5.26Zm11.54,4.57c1.24-.12,2.59-.31,3.6-.6l.34,1.32c-1.06,.4-2.41,.7-4.26,.88l-8.99,.87,.38-6.51,1.9-.18-.34,4.94,7.37-.71Zm3.7-18.29l-.85,15.09-1.96,.19,.87-15.1,1.94-.19Z"/><path class="cls-2" d="M72.52,60.94c-3.07,.29-5.09-1.23-5.07-3.92,0-2.69,2.35-5.04,5.4-5.34,3.07-.3,5.13,1.21,5.11,3.9-.05,2.8-2.37,5.07-5.44,5.37Zm.05-1.53c2-.19,3.49-1.48,3.56-3.27,.06-1.79-1.39-3.07-3.31-2.89-2.02,.2-3.56,1.42-3.58,3.21-.02,1.81,1.4,3.13,3.34,2.95Zm10.25,2.58l-.35,4.44c-.04,.52-.16,.98-.38,1.39l.55-.05-.19,1.59-12.68,1.22,.49-7.38,12.55-1.21Zm-10.78,2.59l-.24,4.24,8.48-.82c.16-.38,.25-.73,.27-1.21l.18-3.05-8.69,.84Zm9.39-14.8l1.96-.19-.67,10.86-1.96,.19,.67-10.86Z"/><path class="cls-2" d="M96.26,49.53l-.53,9.25-8.72,.84,.55-9.26,1.92-.18-.21,3.35,4.94-.48,.17-3.35,1.88-.18Zm-7.89,14.09l.08-1.6,12.42-1.2-.44,7.03-2,.19,.36-5.43-10.42,1Zm.61-5.72l5.01-.48,.14-2.77-4.97,.48-.19,2.77Zm15.12-4.96l-.09,1.56-2.92,.28-.26,4.63-1.94,.19,.67-11.57,1.94-.19-.32,5.39,2.92-.28Z"/><path class="cls-2" d="M108.36,62.74l-.09,2.14-2.43,.23,.1-2.14,2.43-.23Zm1.64-14.46l-1.91,12.79-1.54,.15,1.48-12.75,1.96-.19Z"/></g></svg>