<svg width="51" height="62" viewBox="0 0 51 62" fill="none" xmlns="http://www.w3.org/2000/svg">
<path d="M0.753927 31.0121C5.10403 27.1995 24.792 9.63659 29.1626 0.643998C29.2073 0.552347 29.2704 0.470549 29.3482 0.403541C29.4259 0.336534 29.5167 0.285709 29.615 0.254135C29.7133 0.222561 29.817 0.210893 29.9201 0.219837C30.0231 0.228781 30.1232 0.258152 30.2143 0.306174L46.5548 8.77996C46.6584 8.83412 46.7477 8.91118 46.8158 9.00507C46.8838 9.09896 46.9288 9.20711 46.947 9.32099C46.9653 9.43486 46.9563 9.55135 46.9209 9.66126C46.8856 9.77116 46.8247 9.87149 46.7431 9.95431L26.5885 30.3043C26.5017 30.388 26.435 30.4898 26.3933 30.602C26.3515 30.7143 26.3357 30.8343 26.3471 30.9534C26.3584 31.0724 26.3967 31.1874 26.459 31.2901C26.5213 31.3928 26.6061 31.4806 26.7072 31.547L50.2706 47.7787C50.351 47.8348 50.4171 47.9084 50.4638 47.9937C50.5106 48.0789 50.5368 48.1737 50.5404 48.2705C50.5439 48.3673 50.5248 48.4636 50.4844 48.552C50.444 48.6404 50.3835 48.7184 50.3074 48.7801C47.8807 50.7427 43.0518 53.6303 36.2382 61.5169C36.1715 61.5963 36.0882 61.6608 35.994 61.7058C35.8999 61.7509 35.7969 61.7756 35.6922 61.7783C35.5875 61.781 35.4834 61.7615 35.387 61.7213C35.2906 61.6811 35.204 61.621 35.1332 61.5451C24.8513 50.5931 13.3509 40.81 0.848048 32.3795C0.737287 32.305 0.645155 32.2068 0.578573 32.0922C0.511992 31.9777 0.472693 31.8498 0.463634 31.7182C0.454575 31.5866 0.475991 31.4547 0.526271 31.3324C0.57655 31.2101 0.654386 31.1006 0.753927 31.0121V31.0121Z" fill="#25E84C"/>
</svg>
