<?xml version="1.0" encoding="UTF-8"?>
<svg id="Layer_2" data-name="Layer 2" xmlns="http://www.w3.org/2000/svg" viewBox="0 0 437.26 421.42">
  <defs>
    <style>
      .cls-1 {
        fill: #030304;
      }

      .cls-2 {
        stroke: #030304;
      }

      .cls-2, .cls-3, .cls-4 {
        fill: none;
        stroke-miterlimit: 10;
        stroke-width: 2px;
      }

      .cls-3 {
        stroke: #060304;
      }

      .cls-4 {
        stroke: #050505;
      }
    </style>
  </defs>
  <g id="Layer_1-2" data-name="Layer 1">
    <path class="cls-1" d="m229,255.52c.77.81,1.59,1.64,2.38,2.5.38.41.73.85,1.05,1.31,2.42,3.53,3.72,6.25-.35,10.67-.1.1-.12.28-.17.42-.01.29.19.43.39.55,13.73,8.32,27.36,16.79,41.31,24.73,3.27,1.86,6.67,3.4,10.39,4.21,1.35.29,2.7.48,4.04.27,2.79-.44,5.4.19,7.96,1.16,1.04.39,2.07.85,3.05,1.38,10.91,5.88,20.41,13.42,27.8,23.46.56.76,1.2,1.48,1.47,2.55-.63.45-1.36.24-2.03.24-11.04.02-22.08-.01-33.12.04-1.51,0-2.73-.38-3.98-1.24-19.28-13.28-38.55-26.58-58.17-39.35-2.54-1.66-5.09-3.31-7.65-4.93-1.48-.94-1.24-1.28-2.69.33-5.18,5.78-10.63,11.3-16.34,16.56-12.13,11.18-25.67,20.3-40.24,27.97-.8.42-1.58.66-2.5.66-8.48-.03-16.96-.02-25.44-.02-.22,0-.43-.06-.88-.14.63-.85,1.49-1.09,2.2-1.48,15.55-8.53,30.06-18.53,43.15-30.53,10.53-9.65,19.25-20.7,25.22-33.78.68-1.49,1.23-2.92.19-4.52-.89-1.37-1.88-2.09-3.67-2.05-7.6.19-15.19.45-22.76,1.1-5.43.47-10.72,1.73-15.64,4.19-2.96,1.48-6.08,1.86-9.31,1.7-8.4-.42-16.28-3.02-24.13-5.75-3.7-1.29-7.29-2.81-10.73-4.7-1.33-.73-2.63-1.53-3.75-2.57-2.53-2.33-2.33-4.19.66-5.79,1.62-.87,3.33-1.52,5.1-2.05,5-1.5,10.08-1.47,15.2-.88,8.59.99,17.22,1.28,25.86,1.36,21.43.19,42.87.29,64.3-.15,9.19-.18,18.38-.59,27.51-1.81,4.99-.67,9.91-1.62,14.64-3.48,4.94-1.94,10.13-2.87,15.42-3.19,8.57-.52,17.1-.11,25.55,1.45,4.3.8,8.21,2.58,11.75,5.13,2.31,1.66,4.07,3.73,3.49,6.84-.56,3.02-2.56,4.86-5.35,5.95-2.36.92-4.84,1.12-7.31,1.04-14.87-.46-29.75-.29-44.62-.29-8.08,0-16.16.09-24.23.19-4.72.06-9.43.22-14.15.34-.29,0-.64-.11-.91.38Z"/>
    <path class="cls-1" d="m192.38,127.33c-2.09,5.2-4.08,10.24-6.45,15.12-1.85,3.81-3.83,7.55-6.34,10.98-1.47,2.01-3.09,3.89-5.22,5.24-2.14,1.36-4.4,1.86-6.83.81-1.68-.72-2.7-1.93-2.86-3.8-.14-1.69,0-3.34.46-4.98,3.16-11.38,6.3-22.76,9.42-34.14.78-2.85,1.49-5.71,2.22-8.57.48-1.9.47-1.92,2.31-1.93,6.4-.01,12.8-.02,19.2,0,1.81,0,1.85.06,1.25,1.73-1.38,3.83-2.79,7.64-4.19,11.46-.13.36-.43.69-.08,1.26,2.71-.57,5.49-1.19,8.33-1.44,1.11-.1,2.24-.31,3.34-.22,5.74.45,11.5.5,17.2,1.41,4.28.68,8.36,2.03,12.37,3.62.74.29,1.44.69,2.11,1.12,2.77,1.79,3.05,3.34,2.28,5.84-1.23,4.01-1.51,8.18-1.55,12.33-.1,10-.03,20-.03,30,0,.16,0,.32,0,.48.05,1.56.05,1.57,1.58,1.54,7.04-.1,14.07-.19,21.11-.31,6.72-.12,13.43-.24,20.14-.45,3.75-.11,7.54-.13,11.22-.91,3.11-.66,6.12-1.78,9.22-2.55,9.2-2.29,18.59-3.04,28.04-3.15,1.63-.02,1.66.03,1.66,1.75.01,6,.01,12,0,18,0,1.94-.02,1.97-1.95,1.88-18.38-.91-36.77-.98-55.17-.88-18.79.11-37.59.24-56.38.5-10.07.14-20.15.41-30.21.93-9.82.5-19.61,1.47-29.42,2.07-7.61.46-15.21,1.25-22.4,3.69-7.86,2.67-15.54,2.18-23.37.53-1.24-.26-2.8-.11-3.6-.98-.84-.91-.28-2.45-.29-3.72-.04-5.2.02-10.4-.04-15.6-.02-1.29.41-1.62,1.64-1.56,7.59.33,15.18.67,22.77.85,8.16.19,16.31.23,24.47.29,14.79.11,29.59.44,44.38.22,3.76-.05,7.51-.18,11.27-.2,1.25,0,1.58-.44,1.56-1.69-.17-10.55-.21-21.11-.4-31.67-.08-4.59-2.11-7.93-6.68-9.46-2.42-.81-4.82-1.73-7.32-2.22-3.01-.59-5.83-1.61-8.76-3.22Z"/>
    <path class="cls-2" d="m326.32,61.16c1.38-10.09,2.31-20.01,2.66-30.1-5.01.49-9.77.93-14.53,1.41-6.59.67-13.18,1.35-19.68,2.74-6.96,1.49-13.8,3.31-20.28,6.34-2.91,1.36-5.99,1.51-9.15,1.18-7.86-.84-15.23-3.43-22.53-6.28-7.59-2.96-14.94-6.43-22.26-10.01-3.76-1.84-6.74-4.53-8.92-8.11-.24-.39-.33-.92-1.07-1.19-1.02,1.97-2.08,3.96-3.08,5.98-4.94,9.96-8.68,20.39-11.97,30.99-.57,1.83-1.31,3.61-1.8,5.45-.35,1.33-.97,1.73-2.35,1.71-7.04-.08-14.08-.04-21.12-.04-4.08,0-8.16,0-12.24,0-.39,0-.78-.07-1.22-.11.66-4.33,1.32-8.57,1.95-12.81.78-5.22,1.14-10.49,1.61-15.74.14-1.56.07-1.57-1.58-1.39-9.29,1.03-18.59,2.02-27.87,3.08-7.74.89-15.3,2.68-22.29,6.12-5.48,2.7-11,2.9-16.79,1.79-7.5-1.44-14.57-4.13-21.54-7.14-5.42-2.34-10.72-4.95-15.95-7.69-4.92-2.57-8.49-6.45-10.88-11.43-1.35-2.81-.65-4.76,2.23-5.99,2.37-1.01,4.92-1.41,7.48-1.51,9.28-.39,18.52-.09,27.75,1.22,9.9,1.4,19.9,1.77,29.91,1.7,9.52-.07,19.02-.53,28.49-1.56,6.51-.71,12.91-1.85,19.15-4.09,8.61-3.09,17.46-5.24,26.74-4.48,6.41.53,12.6,2.01,18.53,4.51,2.68,1.13,5.06,2.72,6.82,5.15,3.03-2.27,6.54-2.7,10.04-2.9,9.12-.52,18.22-.08,27.29,1.03,11.2,1.37,22.46,1.92,33.75,1.86,9.04-.05,18.06-.54,27.04-1.57,5.87-.67,11.66-1.72,17.29-3.7,6.86-2.41,13.86-4.34,21.22-4.58,5.4-.18,10.67.59,15.9,1.82,3.42.8,6.81,1.71,10.03,3.15,1.76.79,3.45,1.69,4.83,3.07,2.15,2.15,2.45,4.57.92,7.18-.04.07-.07.14-.12.21-5.34,6.77-7.77,14.72-9.54,23-1.43,6.71-3.21,13.34-5.2,19.91-.69,2.27-.54,1.89-2.36,1.89-11.36,0-22.72,0-34.08,0-.31,0-.62-.04-1.23-.09Z"/>
    <path class="cls-1" d="m222.39,225.32c-4.9-.26-10.98-.18-16.99-1.28-5.38-.99-10.47-2.75-15.3-5.3-4.24-2.24-8.32-4.74-12.38-7.27-1.15-.72-2.24-1.55-3.08-2.64-1.38-1.79-1.21-3.61.56-5.03,2.39-1.91,5.23-2.64,8.23-2.89,3.95-.33,7.8.35,11.65,1.08,8.41,1.6,16.89,2.5,25.45,2.8,10.3.36,20.59.87,30.89,1.39,3.35.17,6.65.76,9.85,1.86,1.22.42,2.38.93,3.42,1.68,2.3,1.64,2.95,3.82,2.03,6.53-.82,2.43-2.6,3.96-4.79,5.1-2.88,1.5-6.03,2.13-9.2,2.44-6.91.68-13.83,1.42-20.79,1.53-2.8.05-5.59,0-9.55,0Z"/>
    <path class="cls-1" d="m317.45,106.32c-.66,2.07-1.27,4.11-1.95,6.12-3.14,9.36-5.85,18.87-9.57,28.03-1.38,3.4-2.91,6.73-4.78,9.89-1.56,2.62-3.38,5.04-5.7,7.04-1.22,1.05-2.55,1.91-4.16,2.26-3.6.79-6.15-1.04-6.51-4.72-.25-2.58.26-5.08.74-7.59,1.68-8.85,3.82-17.6,5.71-26.4.96-4.44,1.83-8.9,2.66-13.37.19-1.03.49-1.55,1.64-1.54,7.03.04,14.06.03,21.09.04.21,0,.43.12.84.25Z"/>
    <path class="cls-3" d="m176.01,369.8c-3.47,3.3-7.22,6-11.09,8.52-23.76,15.47-48.76,28.47-75.64,37.7-6.04,2.07-12.16,3.88-18.59,4.33-1.6.11-3.2.13-4.79-.12-2.61-.41-4.72-1.58-5.56-4.26-.82-2.62-.07-4.87,1.89-6.75,2.11-2.04,4.67-3.32,7.35-4.39,7.78-3.1,15.42-6.51,22.88-10.34,13.31-6.83,25.97-14.72,38.14-23.41,1.23-.88,2.42-1.31,3.95-1.3,13.11.05,26.23.03,39.34.03h2.11Z"/>
    <path class="cls-3" d="m283.18,369.8h2.32c21.92,0,43.84.02,65.76-.04,1.72,0,3.01.48,4.32,1.56,6.83,5.62,12.91,11.94,18.11,19.09,2.08,2.86,3.88,5.84,4.76,9.32,1.27,5.01-.11,9.17-3.99,12.48-5.93,5.05-12.79,5.81-20.07,3.97-6.12-1.55-11.51-4.67-16.66-8.22-14.67-10.12-29.33-20.24-44-30.36-3.55-2.45-7.11-4.87-10.67-7.31.04-.16.09-.32.13-.49Z"/>
    <path class="cls-3" d="m373.23,192.64v-32.6c4.24-.39,8.4-.31,12.54-.21,8.23.2,16.45.47,24.61,1.7,5.22.78,10.37,1.82,15.28,3.83,2.3.94,4.47,2.11,6.37,3.74,5.94,5.08,5.56,13.83-.8,18.37-2.99,2.13-6.43,3.13-9.98,3.81-3.93.75-7.92,1.03-11.9,1.33-10.93.82-21.87.93-32.82.5-1.1-.04-2.23,0-3.31-.46Z"/>
    <path class="cls-4" d="m64.28,203.4c-3.94-.64-7.74-1.54-11.51-2.53-13.57-3.57-26.96-7.7-39.99-12.95-2.66-1.07-5.23-2.36-7.63-3.95-1.07-.71-2.09-1.48-2.91-2.47-1.82-2.21-1.62-4.47.59-6.27,1.18-.97,2.56-1.62,3.95-2.21,4.37-1.86,8.99-2.68,13.66-3.33,10.19-1.42,20.41-.85,30.62-.5,3.99.14,7.98.33,11.97.42,1.06.03,1.55.23,1.55,1.46-.05,10.55-.04,21.1-.05,31.64,0,.15-.1.29-.25.7Z"/>
  </g>
</svg>