<svg width="69" height="71" viewBox="0 0 69 71" fill="none" xmlns="http://www.w3.org/2000/svg">
<path d="M34.4927 20.9576C36.8003 23.5827 47.4305 35.4634 52.8734 38.1008C52.9289 38.1278 52.9784 38.1659 53.0189 38.2128C53.0595 38.2597 53.0903 38.3145 53.1094 38.3738C53.1285 38.4331 53.1355 38.4957 53.1301 38.5579C53.1247 38.6201 53.1069 38.6805 53.0779 38.7355L47.949 48.5961C47.9162 48.6586 47.8696 48.7125 47.8128 48.7536C47.7559 48.7947 47.6905 48.8218 47.6215 48.8328C47.5526 48.8438 47.4821 48.8384 47.4156 48.8171C47.3491 48.7957 47.2883 48.759 47.2382 48.7097L34.9211 36.5475C34.8704 36.4951 34.8089 36.4549 34.7409 36.4297C34.6729 36.4045 34.6003 36.3949 34.5283 36.4018C34.4562 36.4087 34.3866 36.4317 34.3244 36.4693C34.2623 36.5069 34.2092 36.5581 34.169 36.6191L24.3445 50.8384C24.3105 50.8869 24.266 50.9268 24.2144 50.955C24.1628 50.9832 24.1054 50.999 24.0468 51.0012C23.9882 51.0033 23.93 50.9918 23.8765 50.9674C23.823 50.943 23.7757 50.9065 23.7384 50.8606C22.5505 49.3962 20.8027 46.4822 16.0293 42.3705C15.9812 42.3303 15.9422 42.2801 15.9149 42.2232C15.8876 42.1664 15.8727 42.1043 15.8711 42.0411C15.8694 41.9779 15.8812 41.9151 15.9056 41.8569C15.9299 41.7987 15.9663 41.7465 16.0122 41.7038C22.6411 35.4992 28.5624 28.5593 33.6651 21.0144C33.7102 20.9476 33.7696 20.892 33.8389 20.8518C33.9083 20.8117 33.9857 20.7879 34.0653 20.7825C34.145 20.777 34.2248 20.7899 34.2988 20.8203C34.3729 20.8506 34.4392 20.8976 34.4927 20.9576Z" fill="#25E84C"/>
</svg>
