<svg width="116" height="114" viewBox="0 0 116 114" fill="none" xmlns="http://www.w3.org/2000/svg">
<path d="M33.2539 57.0121C37.604 53.1995 57.292 35.6366 61.6626 26.644C61.7073 26.5523 61.7704 26.4705 61.8482 26.4035C61.9259 26.3365 62.0167 26.2857 62.115 26.2541C62.2133 26.2226 62.317 26.2109 62.4201 26.2198C62.5231 26.2288 62.6232 26.2582 62.7143 26.3062L79.0548 34.78C79.1584 34.8341 79.2477 34.9112 79.3158 35.0051C79.3838 35.099 79.4288 35.2071 79.447 35.321C79.4653 35.4349 79.4563 35.5513 79.4209 35.6613C79.3856 35.7712 79.3247 35.8715 79.2431 35.9543L59.0885 56.3043C59.0017 56.388 58.935 56.4898 58.8933 56.602C58.8515 56.7143 58.8357 56.8343 58.8471 56.9534C58.8584 57.0724 58.8967 57.1874 58.959 57.2901C59.0213 57.3928 59.1061 57.4806 59.2072 57.547L82.7706 73.7787C82.851 73.8348 82.9171 73.9084 82.9638 73.9937C83.0106 74.0789 83.0368 74.1737 83.0404 74.2705C83.0439 74.3673 83.0248 74.4636 82.9844 74.552C82.944 74.6404 82.8835 74.7184 82.8074 74.7801C80.3807 76.7427 75.5518 79.6303 68.7382 87.5169C68.6715 87.5963 68.5882 87.6608 68.494 87.7058C68.3999 87.7509 68.2969 87.7756 68.1922 87.7783C68.0875 87.781 67.9834 87.7615 67.887 87.7213C67.7906 87.6811 67.704 87.621 67.6332 87.5451C57.3513 76.5931 45.8509 66.81 33.348 58.3795C33.2373 58.305 33.1452 58.2068 33.0786 58.0922C33.012 57.9777 32.9727 57.8498 32.9636 57.7182C32.9546 57.5866 32.976 57.4547 33.0263 57.3324C33.0766 57.2101 33.1544 57.1006 33.2539 57.0121V57.0121Z" fill="#25E84C"/>
</svg>
