<svg width="116" height="114" viewBox="0 0 116 114" fill="none" xmlns="http://www.w3.org/2000/svg">
<path d="M82.7461 57.0121C78.396 53.1995 58.708 35.6366 54.3374 26.644C54.2927 26.5523 54.2296 26.4705 54.1518 26.4035C54.0741 26.3365 53.9833 26.2857 53.885 26.2541C53.7867 26.2226 53.683 26.2109 53.5799 26.2198C53.4769 26.2288 53.3768 26.2582 53.2857 26.3062L36.9452 34.78C36.8416 34.8341 36.7523 34.9112 36.6842 35.0051C36.6162 35.099 36.5712 35.2071 36.553 35.321C36.5347 35.4349 36.5437 35.5513 36.5791 35.6613C36.6144 35.7712 36.6753 35.8715 36.7569 35.9543L56.9115 56.3043C56.9983 56.388 57.065 56.4898 57.1067 56.602C57.1485 56.7143 57.1643 56.8343 57.1529 56.9534C57.1416 57.0724 57.1033 57.1874 57.041 57.2901C56.9787 57.3928 56.8939 57.4806 56.7928 57.547L33.2294 73.7787C33.149 73.8348 33.0829 73.9084 33.0362 73.9937C32.9894 74.0789 32.9632 74.1737 32.9596 74.2705C32.9561 74.3673 32.9752 74.4636 33.0156 74.552C33.056 74.6404 33.1165 74.7184 33.1926 74.7801C35.6193 76.7427 40.4482 79.6303 47.2618 87.5169C47.3285 87.5963 47.4118 87.6608 47.506 87.7058C47.6001 87.7509 47.7031 87.7756 47.8078 87.7783C47.9125 87.781 48.0166 87.7615 48.113 87.7213C48.2094 87.6811 48.296 87.621 48.3668 87.5451C58.6487 76.5931 70.1491 66.81 82.652 58.3795C82.7627 58.305 82.8548 58.2068 82.9214 58.0922C82.988 57.9777 83.0273 57.8498 83.0364 57.7182C83.0454 57.5866 83.024 57.4547 82.9737 57.3324C82.9234 57.2101 82.8456 57.1006 82.7461 57.0121V57.0121Z" fill="#25E84C"/>
</svg>
