<svg width="157" height="157" viewBox="0 0 157 157" fill="none" xmlns="http://www.w3.org/2000/svg">
<path d="M78.5018 156.723C121.702 156.723 156.723 121.702 156.723 78.5018C156.723 35.3014 121.702 0.280457 78.5018 0.280457C35.3014 0.280457 0.280457 35.3014 0.280457 78.5018C0.280457 121.702 35.3014 156.723 78.5018 156.723Z" fill="white"/>
<path d="M78.5019 157C35.2138 157 0 121.786 0 78.5019C0 35.2176 35.2138 0 78.5019 0C121.79 0 157 35.2138 157 78.5019C157 121.79 121.786 157 78.5019 157ZM78.5019 0.560968C35.528 0.560968 0.560968 35.528 0.560968 78.5019C0.560968 121.476 35.528 156.439 78.5019 156.439C121.476 156.439 156.439 121.476 156.439 78.5019C156.439 35.528 121.476 0.560968 78.5019 0.560968Z" fill="black"/>
<path d="M73.442 137.074V137.647H68.8308V137.074H73.442ZM71.1233 137.987C71.4408 137.982 71.7576 138.019 72.0657 138.095C72.2908 138.15 72.4989 138.259 72.6716 138.413C72.7386 138.477 72.7918 138.553 72.8279 138.638C72.8639 138.723 72.882 138.815 72.881 138.907C72.8827 139.002 72.865 139.095 72.829 139.183C72.793 139.27 72.7394 139.35 72.6716 139.416C72.4995 139.57 72.291 139.678 72.0657 139.73C71.4499 139.866 70.8116 139.866 70.1958 139.73C69.9691 139.679 69.7592 139.571 69.5862 139.416C69.5172 139.35 69.4626 139.271 69.4258 139.184C69.3891 139.096 69.3712 139.002 69.3731 138.907C69.3719 138.814 69.3902 138.722 69.427 138.637C69.4637 138.552 69.518 138.476 69.5862 138.413C69.7598 138.258 69.9694 138.149 70.1958 138.095C70.4996 138.024 70.8113 137.991 71.1233 137.998V137.987ZM72.8885 135.006V135.556H70.0949V136.543H69.388V135.006H72.8885ZM72.9147 136.173V136.727H69.388V136.173H72.9147ZM71.1233 138.518C70.9269 138.515 70.7305 138.527 70.5362 138.555C70.4132 138.571 70.2955 138.614 70.1921 138.683C70.1563 138.705 70.1269 138.737 70.1066 138.774C70.0863 138.811 70.0758 138.853 70.0762 138.896C70.0757 138.94 70.086 138.983 70.1062 139.022C70.1264 139.061 70.1559 139.095 70.1921 139.12C70.2962 139.191 70.4152 139.237 70.5399 139.255C70.7329 139.284 70.928 139.298 71.1233 139.296C71.3161 139.298 71.5087 139.284 71.6992 139.255C71.8251 139.237 71.9453 139.191 72.0508 139.12C72.0874 139.095 72.1175 139.062 72.1383 139.023C72.1592 138.984 72.1702 138.94 72.1704 138.896C72.1707 138.853 72.1598 138.811 72.1388 138.773C72.1179 138.736 72.0875 138.705 72.0508 138.683C71.9456 138.615 71.8268 138.572 71.703 138.555C71.5108 138.531 71.3169 138.522 71.1233 138.529V138.518ZM71.4973 137.329V138.286H70.7905V137.329H71.4973Z" fill="black"/>
<path d="M75.4652 135.938C75.468 136.344 75.4151 136.749 75.3081 137.142C75.2146 137.502 75.0562 137.841 74.8406 138.144C74.6397 138.425 74.3725 138.653 74.0628 138.806L73.6327 138.23C73.9035 138.106 74.1407 137.919 74.3246 137.684C74.5158 137.444 74.6604 137.17 74.7509 136.876C74.8426 136.572 74.8892 136.256 74.8893 135.938V135.19H75.4652V135.938ZM75.5998 135.938C75.596 136.243 75.6389 136.547 75.727 136.839C75.8124 137.118 75.948 137.379 76.1271 137.609C76.3029 137.837 76.5296 138.02 76.7891 138.144L76.3627 138.709C76.0634 138.562 75.806 138.342 75.6148 138.069C75.4088 137.777 75.258 137.45 75.1697 137.104C75.0714 136.723 75.0236 136.331 75.0276 135.938V135.19H75.5961L75.5998 135.938ZM77.724 134.793V139.842H77.0135V134.793H77.724ZM78.472 136.738V137.336H77.5707V136.738H78.472Z" fill="black"/>
<path d="M80.1362 135.148C80.381 135.146 80.6201 135.223 80.8168 135.369C81.0284 135.532 81.1924 135.749 81.2918 135.997C81.4123 136.298 81.4708 136.62 81.4638 136.944C81.4712 137.27 81.4127 137.594 81.2918 137.897C81.193 138.147 81.0289 138.365 80.8168 138.529C80.6201 138.675 80.381 138.753 80.1362 138.75C79.8878 138.753 79.6452 138.675 79.4443 138.529C79.2315 138.367 79.0672 138.15 78.9693 137.901C78.8481 137.597 78.7896 137.271 78.7973 136.944C78.7903 136.62 78.8488 136.298 78.9693 135.997C79.0653 135.747 79.2299 135.53 79.4443 135.369C79.6455 135.224 79.8879 135.146 80.1362 135.148ZM80.1362 135.788C80.0084 135.787 79.885 135.835 79.7921 135.923C79.6825 136.031 79.6038 136.166 79.564 136.315C79.4542 136.728 79.4542 137.163 79.564 137.576C79.6028 137.726 79.6817 137.863 79.7921 137.972C79.885 138.06 80.0084 138.108 80.1362 138.107C80.2616 138.107 80.3823 138.059 80.4727 137.972C80.5818 137.862 80.6593 137.725 80.6971 137.576C80.8069 137.163 80.8069 136.728 80.6971 136.315C80.6585 136.167 80.5811 136.031 80.4727 135.923C80.3823 135.836 80.2616 135.787 80.1362 135.788ZM82.8774 134.793V139.868H82.1594V134.793H82.8774Z" fill="black"/>
<path d="M88.1804 138.679V139.255H83.5618V138.679H88.1804ZM87.6381 135.167V135.754H84.8258V137.572H84.1078V135.182L87.6381 135.167ZM87.6755 137.411V137.968H84.1078V137.411H87.6755ZM87.5185 136.289V136.843H84.6126V136.289H87.5185Z" fill="black"/>
<path d="M58.3108 17.1282V13.1117H59.1448V14.8918H59.2009L60.6594 13.1117H61.6616L60.1657 14.9105L61.6803 17.1282H60.6781L59.5561 15.4678L59.1298 15.9801V17.1282H58.3108Z" fill="black"/>
<path d="M65.4126 13.1117V17.1282H64.6983L62.9256 14.5852H62.892V17.1282H62.0804V13.1117H62.8284L64.5824 15.6622H64.616V13.1117H65.4126Z" fill="black"/>
<path d="M69.7507 15.1199C69.7624 15.5081 69.6789 15.8933 69.5076 16.2419C69.3559 16.5383 69.1223 16.7849 68.8345 16.9524C68.5394 17.1145 68.2082 17.1994 67.8715 17.1994C67.5348 17.1994 67.2036 17.1145 66.9085 16.9524C66.6208 16.7844 66.3882 16.5362 66.2391 16.2381C66.0779 15.892 65.9944 15.5148 65.9944 15.133C65.9944 14.7512 66.0779 14.374 66.2391 14.0279C66.3873 13.7303 66.6202 13.4831 66.9085 13.3174C67.2036 13.1553 67.5348 13.0704 67.8715 13.0704C68.2082 13.0704 68.5394 13.1553 68.8345 13.3174C69.1231 13.4839 69.357 13.7308 69.5076 14.0279C69.6742 14.3675 69.7575 14.7418 69.7507 15.1199ZM68.9055 15.1199C68.9129 14.8732 68.8697 14.6275 68.7784 14.3982C68.7078 14.216 68.5838 14.0594 68.4226 13.949C68.2614 13.8386 68.0706 13.7796 67.8752 13.7796C67.6799 13.7796 67.4891 13.8386 67.3279 13.949C67.1667 14.0594 67.0427 14.216 66.9721 14.3982C66.8026 14.8644 66.8026 15.3755 66.9721 15.8417C67.0422 16.0239 67.1661 16.1805 67.3274 16.2905C67.448 16.3724 67.5856 16.4261 67.7299 16.4477C67.8741 16.4692 68.0214 16.458 68.1608 16.4149C68.3001 16.3718 68.428 16.2979 68.5349 16.1987C68.6418 16.0995 68.725 15.9775 68.7784 15.8417C68.8693 15.6123 68.9126 15.3667 68.9055 15.1199Z" fill="black"/>
<path d="M73.0193 14.5104C72.9985 14.3753 72.946 14.2472 72.866 14.1364C72.7876 14.0298 72.6833 13.9449 72.5631 13.8896C72.4312 13.8313 72.2884 13.802 72.1442 13.8035C71.9492 13.7982 71.7573 13.853 71.5945 13.9606C71.4267 14.0699 71.2962 14.2277 71.2205 14.4131C71.0509 14.8768 71.0509 15.3855 71.2205 15.8492C71.2907 16.0333 71.4169 16.1907 71.5812 16.2994C71.7456 16.4081 71.9399 16.4625 72.1368 16.4551C72.2783 16.4583 72.4187 16.4302 72.5481 16.3728C72.6692 16.3225 72.775 16.2412 72.8548 16.1372C72.9394 16.0278 72.9959 15.8994 73.0193 15.7632H73.8608C73.8305 16.0144 73.7393 16.2545 73.5953 16.4625C73.4425 16.6846 73.2351 16.8636 72.9932 16.9824C72.7059 17.1206 72.3897 17.1883 72.071 17.1798C71.7523 17.1713 71.4402 17.087 71.1607 16.9337C70.876 16.7642 70.6461 16.5162 70.4987 16.2194C70.3375 15.8733 70.254 15.4961 70.254 15.1143C70.254 14.7325 70.3375 14.3554 70.4987 14.0092C70.6467 13.7126 70.878 13.4656 71.1644 13.2987C71.4567 13.1313 71.7888 13.0461 72.1255 13.0519C72.4138 13.0492 72.6994 13.1078 72.9632 13.2239C73.2049 13.3362 73.4135 13.5087 73.5691 13.725C73.7308 13.9567 73.8312 14.2256 73.8608 14.5066L73.0193 14.5104Z" fill="black"/>
<path d="M74.4218 17.1282V13.1117H75.252V14.8918H75.3081L76.7666 13.1117H77.7876L76.2916 14.9105L77.7876 17.1282H76.789L75.6671 15.4678L75.2408 15.9801V17.1282H74.4218Z" fill="black"/>
<path d="M79.4855 17.1282V13.1117H80.3194V14.8918H80.3755L81.834 13.1117H82.8363L81.3404 14.9105L82.8363 17.1282H81.8378L80.7159 15.4678L80.2933 15.9801V17.1282H79.4855Z" fill="black"/>
<path d="M86.5835 13.1117V17.1282H85.8617L84.0966 14.5852H84.0666V17.1282H83.2327V13.1117H83.9806L85.7346 15.6622H85.7683V13.1117H86.5835Z" fill="black"/>
<path d="M90.9217 15.12C90.9352 15.5084 90.8516 15.894 90.6786 16.2419C90.5293 16.5388 90.2966 16.7857 90.0092 16.9525C89.7134 17.1145 89.3816 17.1994 89.0443 17.1994C88.7071 17.1994 88.3752 17.1145 88.0794 16.9525C87.7938 16.783 87.5627 16.5351 87.4138 16.2382C87.2526 15.8921 87.1691 15.5149 87.1691 15.1331C87.1691 14.7513 87.2526 14.3741 87.4138 14.028C87.5617 13.7313 87.7931 13.4844 88.0794 13.3174C88.3752 13.1554 88.7071 13.0704 89.0443 13.0704C89.3816 13.0704 89.7134 13.1554 90.0092 13.3174C90.2975 13.4831 90.5304 13.7303 90.6786 14.028C90.8468 14.3669 90.9302 14.7417 90.9217 15.12ZM90.0765 15.12C90.0839 14.8732 90.0406 14.6276 89.9493 14.3982C89.8751 14.2129 89.7442 14.0558 89.5754 13.9494C89.4126 13.8452 89.2225 13.7918 89.0293 13.7961C88.8351 13.7898 88.6437 13.8445 88.4821 13.9525C88.3204 14.0605 88.1967 14.2163 88.1281 14.3982C87.9586 14.8645 87.9586 15.3755 88.1281 15.8418C88.1853 15.9738 88.2703 16.092 88.3774 16.1881C88.4845 16.2842 88.6111 16.356 88.7486 16.3986C88.8861 16.4413 89.0311 16.4537 89.1738 16.435C89.3165 16.4164 89.4535 16.3671 89.5754 16.2905C89.7442 16.1841 89.8751 16.0271 89.9493 15.8418C90.0403 15.6123 90.0836 15.3667 90.0765 15.12Z" fill="black"/>
<path d="M94.1903 14.5104C94.1707 14.3756 94.1195 14.2475 94.0407 14.1364C93.9617 14.0288 93.856 13.9437 93.734 13.8896C93.6023 13.831 93.4594 13.8016 93.3152 13.8036C93.1203 13.7994 92.9287 13.8541 92.7654 13.9606C92.5987 14.0711 92.4686 14.2286 92.3915 14.4131C92.2219 14.8768 92.2219 15.3855 92.3915 15.8492C92.4686 16.0327 92.5988 16.189 92.7654 16.298C92.9081 16.3845 93.0692 16.436 93.2356 16.4483C93.402 16.4607 93.5689 16.4335 93.7228 16.369C93.8439 16.3188 93.9497 16.2375 94.0295 16.1334C94.1144 16.0247 94.1698 15.8959 94.1903 15.7595H95.0355C95.005 16.0101 94.9124 16.2492 94.7662 16.4551C94.6149 16.677 94.4087 16.856 94.1679 16.9749C93.8806 17.1131 93.5644 17.1808 93.2457 17.1723C92.927 17.1639 92.6149 17.0795 92.3354 16.9263C92.0487 16.758 91.8174 16.5097 91.6697 16.212C91.499 15.8633 91.4168 15.478 91.4303 15.09C91.4168 14.7017 91.5004 14.3161 91.6734 13.9681C91.8203 13.6707 92.0519 13.4235 92.3391 13.2575C92.6303 13.0909 92.961 13.0056 93.2965 13.0107C93.5848 13.0076 93.8704 13.0663 94.1342 13.1827C94.3775 13.2939 94.5877 13.4666 94.7438 13.6839C94.9055 13.9156 95.0059 14.1845 95.0355 14.4655L94.1903 14.5104Z" fill="black"/>
<path d="M95.6002 17.1282V13.1117H96.4342V14.8918H96.4865L97.9451 13.1117H98.9473L97.4514 14.9105L98.9473 17.1282H97.9825L96.8605 15.4678L96.4379 15.9801V17.1282H95.6002Z" fill="black"/>
<path d="M63.094 146.536V145.934L64.5338 144.606C64.6759 144.468 64.7881 144.356 64.8666 144.266C64.94 144.185 65.0006 144.093 65.0461 143.993C65.088 143.901 65.1109 143.802 65.1134 143.701C65.1131 143.594 65.0833 143.49 65.0274 143.398C64.9736 143.311 64.8957 143.241 64.803 143.196C64.6996 143.15 64.5872 143.127 64.4739 143.129C64.3597 143.126 64.2464 143.151 64.1448 143.204C64.0508 143.252 63.9738 143.328 63.9242 143.421C63.8729 143.524 63.8472 143.638 63.8494 143.754H63.0566C63.0496 143.515 63.1106 143.279 63.2323 143.073C63.352 142.875 63.5277 142.718 63.7372 142.62C63.9712 142.512 64.2271 142.458 64.4852 142.463C64.7424 142.458 64.9978 142.509 65.2331 142.613C65.4383 142.703 65.6134 142.849 65.738 143.036C65.8573 143.218 65.921 143.431 65.9212 143.649C65.9193 143.806 65.8862 143.961 65.824 144.105C65.7449 144.283 65.6376 144.447 65.5061 144.591C65.3074 144.819 65.0938 145.032 64.8666 145.231L64.257 145.822V145.852H65.9736V146.536H63.094Z" fill="black"/>
<path d="M68.1053 146.622C67.7981 146.631 67.4958 146.544 67.2414 146.372C66.9882 146.195 66.7941 145.946 66.6841 145.657C66.5481 145.299 66.4821 144.918 66.4897 144.535C66.482 144.152 66.5494 143.771 66.6879 143.413C66.7979 143.128 66.9906 142.882 67.2414 142.707C67.4308 142.576 67.6476 142.49 67.8751 142.455C68.1027 142.421 68.3351 142.438 68.5549 142.507C68.7746 142.575 68.9759 142.693 69.1436 142.851C69.3113 143.008 69.4409 143.202 69.5226 143.417C69.6621 143.774 69.7282 144.156 69.7171 144.539C69.7266 144.922 69.6605 145.303 69.5226 145.661C69.4137 145.951 69.2195 146.202 68.9654 146.379C68.7102 146.546 68.41 146.631 68.1053 146.622ZM68.1053 145.927C68.2553 145.929 68.4003 145.873 68.5092 145.769C68.6378 145.64 68.7295 145.479 68.7747 145.302C68.8396 145.05 68.8698 144.791 68.8644 144.532C68.8685 144.279 68.8383 144.028 68.7747 143.784C68.7281 143.609 68.6366 143.449 68.5092 143.32C68.3988 143.219 68.2548 143.163 68.1053 143.163C67.9558 143.163 67.8117 143.219 67.7014 143.32C67.5727 143.448 67.4809 143.608 67.4358 143.784C67.3691 144.027 67.3376 144.279 67.3423 144.532C67.337 144.791 67.3672 145.05 67.4321 145.302C67.4772 145.479 67.5689 145.64 67.6976 145.769C67.8078 145.873 67.9541 145.929 68.1053 145.927Z" fill="black"/>
<path d="M70.2743 146.536V145.934L71.7141 144.606C71.8562 144.468 71.9684 144.356 72.047 144.266C72.1204 144.185 72.1809 144.093 72.2265 143.993C72.2716 143.902 72.2946 143.803 72.2938 143.701C72.2946 143.595 72.2661 143.49 72.2115 143.398C72.1553 143.312 72.0764 143.242 71.9834 143.196C71.8799 143.15 71.7676 143.127 71.6543 143.129C71.54 143.126 71.4268 143.152 71.3252 143.204C71.2314 143.251 71.1553 143.327 71.1083 143.421C71.0539 143.523 71.0268 143.638 71.0298 143.754H70.2369C70.2313 143.514 70.2935 143.278 70.4164 143.073C70.533 142.874 70.708 142.716 70.9176 142.621C71.1516 142.512 71.4075 142.458 71.6655 142.463C71.9228 142.458 72.1782 142.509 72.4135 142.613C72.6202 142.7 72.7961 142.847 72.9183 143.036C73.0397 143.217 73.1036 143.431 73.1016 143.649C73.1009 143.806 73.0691 143.961 73.0081 144.105C72.9262 144.282 72.8191 144.446 72.6902 144.591C72.4891 144.818 72.2743 145.031 72.047 145.231L71.4299 145.822V145.852H73.1502V146.536H70.2743Z" fill="black"/>
<path d="M73.7262 146.536V145.934L75.1697 144.606C75.3118 144.468 75.4203 144.356 75.4988 144.266C75.5733 144.185 75.6351 144.093 75.6821 143.993C75.7242 143.902 75.7459 143.802 75.7457 143.701C75.7483 143.595 75.7197 143.489 75.6634 143.398C75.6084 143.312 75.5308 143.242 75.439 143.196C75.3354 143.151 75.2232 143.128 75.1099 143.129C74.9956 143.125 74.8821 143.151 74.7808 143.204C74.6859 143.251 74.6085 143.327 74.5601 143.421C74.5088 143.524 74.4832 143.638 74.4853 143.754H73.6738C73.6669 143.515 73.7278 143.279 73.8496 143.073C73.9692 142.875 74.145 142.718 74.3545 142.621C74.5883 142.511 74.8443 142.457 75.1024 142.463C75.3597 142.458 75.615 142.509 75.8504 142.613C76.0555 142.703 76.2307 142.85 76.3552 143.036C76.4753 143.217 76.5379 143.431 76.5348 143.649C76.5358 143.806 76.504 143.961 76.4413 144.105C76.3607 144.283 76.2535 144.447 76.1234 144.591C75.9247 144.819 75.711 145.032 75.4839 145.231L74.8743 145.822V145.852H76.5909V146.536H73.7262Z" fill="black"/>
<path d="M80.0315 146.622C79.7243 146.631 79.4221 146.544 79.1676 146.372C78.9144 146.195 78.7203 145.946 78.6103 145.657C78.4743 145.299 78.4083 144.918 78.4159 144.535C78.4082 144.152 78.4756 143.771 78.6141 143.413C78.7241 143.128 78.9169 142.882 79.1676 142.707C79.3571 142.576 79.5738 142.49 79.8013 142.455C80.0289 142.421 80.2613 142.438 80.4811 142.507C80.7008 142.575 80.9021 142.693 81.0698 142.851C81.2375 143.008 81.3671 143.202 81.4488 143.417C81.5883 143.774 81.6544 144.156 81.6433 144.539C81.6528 144.922 81.5867 145.303 81.4488 145.661C81.3399 145.951 81.1457 146.202 80.8916 146.379C80.6364 146.546 80.3363 146.631 80.0315 146.622ZM80.0315 145.927C80.1815 145.929 80.3265 145.873 80.4354 145.769C80.564 145.64 80.6557 145.479 80.7009 145.302C80.7658 145.05 80.796 144.791 80.7906 144.532C80.7947 144.279 80.7645 144.028 80.7009 143.784C80.6543 143.609 80.5628 143.449 80.4354 143.32C80.3251 143.219 80.181 143.163 80.0315 143.163C79.882 143.163 79.7379 143.219 79.6276 143.32C79.4989 143.448 79.4071 143.608 79.362 143.784C79.2953 144.027 79.2638 144.279 79.2686 144.532C79.2632 144.791 79.2934 145.05 79.3583 145.302C79.4035 145.479 79.4951 145.64 79.6238 145.769C79.734 145.873 79.8803 145.929 80.0315 145.927Z" fill="black"/>
<path d="M82.1519 145.822V145.167L83.8498 142.52H84.4145V143.432H84.0779L82.9934 145.122V145.156H85.4055V145.822H82.1519ZM84.1003 146.536V145.624V145.332V142.52H84.8932V146.536H84.1003Z" fill="black"/>
<path d="M88.8012 146.622C88.4944 146.629 88.1928 146.542 87.9373 146.372C87.6864 146.193 87.4938 145.945 87.3838 145.657C87.246 145.3 87.1799 144.918 87.1894 144.535C87.1806 144.152 87.2467 143.771 87.3838 143.413C87.4953 143.128 87.6893 142.882 87.9411 142.707C88.1963 142.54 88.4964 142.455 88.8012 142.463C89.107 142.456 89.4079 142.541 89.6651 142.707C89.917 142.883 90.1109 143.13 90.2223 143.417C90.3586 143.775 90.4234 144.156 90.4131 144.539C90.4219 144.922 90.3571 145.303 90.2223 145.661C90.112 145.95 89.918 146.2 89.6651 146.379C89.4088 146.547 89.1073 146.631 88.8012 146.622ZM88.8012 145.927C88.9522 145.929 89.0982 145.872 89.2089 145.769C89.3363 145.64 89.4267 145.478 89.4707 145.302C89.5388 145.051 89.5703 144.792 89.5641 144.532C89.5689 144.279 89.5374 144.027 89.4707 143.784C89.4256 143.608 89.3338 143.448 89.2051 143.32C89.0954 143.218 88.951 143.162 88.8012 143.163C88.6516 143.162 88.5074 143.219 88.3973 143.32C88.2698 143.448 88.1794 143.608 88.1355 143.784C88.0672 144.027 88.0344 144.279 88.0383 144.532C88.0322 144.792 88.0637 145.051 88.1318 145.302C88.1757 145.478 88.2661 145.64 88.3936 145.769C88.5042 145.872 88.6502 145.929 88.8012 145.927Z" fill="black"/>
<path d="M92.4513 146.6C92.1941 146.605 91.9389 146.554 91.7034 146.45C91.4943 146.358 91.3136 146.212 91.1798 146.027C91.0523 145.85 90.983 145.637 90.9816 145.418H91.7931C91.797 145.517 91.8309 145.612 91.8903 145.691C91.9523 145.772 92.0332 145.836 92.1259 145.878C92.2271 145.923 92.3368 145.946 92.4476 145.945C92.5785 145.949 92.708 145.917 92.8215 145.852C92.9279 145.793 93.0159 145.707 93.0759 145.601C93.1379 145.486 93.1688 145.358 93.1656 145.227C93.168 145.097 93.1371 144.968 93.0759 144.853C93.0138 144.746 92.9248 144.657 92.8178 144.595C92.7022 144.535 92.5741 144.503 92.4438 144.502C92.314 144.499 92.1856 144.529 92.0699 144.588C91.964 144.644 91.878 144.732 91.823 144.838H91.0751L91.292 142.527H93.764V143.211H91.9801L91.8716 144.225H91.9016C91.9558 144.154 92.0231 144.094 92.0998 144.049C92.1858 143.995 92.279 143.954 92.3765 143.926C92.485 143.897 92.597 143.883 92.7094 143.885C92.9398 143.882 93.1669 143.94 93.3676 144.053C93.5612 144.164 93.7194 144.327 93.8238 144.524C93.9376 144.733 93.9955 144.967 93.9921 145.205C93.9965 145.457 93.9305 145.706 93.8014 145.923C93.6729 146.136 93.4861 146.309 93.2628 146.42C93.0111 146.546 92.7324 146.607 92.4513 146.6Z" fill="black"/>
<path d="M27.6745 82.3015C27.6745 82.3015 27.0649 82.1893 25.7036 81.9275C24.3984 81.6695 22.8352 81.3366 22.6444 81.2918C22.3714 81.2319 22.3004 81.2918 22.2705 81.7592C22.2705 82.0098 21.717 84.8633 21.257 87.0174C20.6461 89.5731 19.8665 92.0855 18.9234 94.5381C18.684 95.1626 18.5943 95.286 19.1552 95.4169C19.5479 95.5142 21.1074 95.9031 21.9675 96.105C22.8277 96.307 24.72 96.7969 25.1651 96.9203C25.8681 97.111 25.8532 97.1372 26.0065 96.2509C26.115 95.6151 27.0948 88.618 27.3042 87.3839C27.5136 86.1497 27.5735 85.7122 27.9101 85.3158C28.2466 84.9194 28.658 84.5678 28.7889 83.8685C29.0208 82.5259 27.6745 82.3015 27.6745 82.3015Z" fill="black"/>
<path d="M74.2385 77.3313C73.3896 76.5647 72.7426 75.899 72.3686 75.5101C72.1854 75.3156 72.1181 75.3044 72.0134 75.3231C71.9086 75.3418 71.8413 75.4203 71.6394 75.6484C70.8117 76.7019 69.9173 77.7012 68.9617 78.6403C67.9166 79.5798 66.8096 80.4481 65.6482 81.2394C64.0775 79.5715 62.6564 77.5856 62.0019 75.3866V74.4293C68.4082 74.4966 72.3387 74.7808 72.8473 74.8032C73.3559 74.8257 73.412 74.7509 73.3372 74.1712C73.2849 73.7449 73.2213 71.0148 73.412 70.0574C73.4831 69.6835 73.5167 69.403 73.1839 69.403C72.8511 69.403 70.4576 69.5152 66.6206 69.59C66.7328 69.0028 67.1853 66.5981 67.6864 64.3543C68.2025 61.9945 69.1449 57.3945 69.7994 55.0048C69.9266 54.5373 69.7171 54.3803 69.2347 54.3765C67.6116 54.3765 55.7004 54.5111 55.3975 54.1259C55.4932 53.721 55.6182 53.3235 55.7715 52.9367C56.0258 52.4281 56.5979 52.2411 56.7662 51.7213C56.7903 51.6559 56.8 51.586 56.7947 51.5165C56.7894 51.4471 56.7692 51.3795 56.7355 51.3185C56.7018 51.2575 56.6554 51.2045 56.5994 51.163C56.5434 51.1215 56.4791 51.0925 56.411 51.078C56.209 51.0481 51.8746 50.5844 51.1005 50.4834C51.0844 50.4807 51.0679 50.4815 51.0521 50.4857C51.0363 50.4898 51.0216 50.4973 51.0089 50.5075C50.9962 50.5177 50.9858 50.5305 50.9784 50.5451C50.9709 50.5596 50.9667 50.5755 50.9658 50.5918C50.891 51.0855 50.4423 53.7221 49.4699 57.4544C48.8664 59.8249 47.9878 62.1167 46.8521 64.2832C46.811 64.3578 46.7997 64.4452 46.8205 64.5278C46.8414 64.6104 46.8927 64.682 46.9643 64.7282L50.8761 67.4396C50.9223 67.4693 50.9751 67.4872 51.0299 67.4917C51.0847 67.4963 51.1397 67.4874 51.1902 67.4658C54.9824 65.8838 61.9608 66.1606 61.9608 66.1606C61.6766 67.0095 60.9249 69.2796 60.7903 69.6947H59.0886C50.9471 69.6947 45.4908 69.4292 44.9672 69.4292C44.5932 69.4292 44.668 69.7246 44.7391 70.0836C44.9298 71.026 44.8662 73.7561 44.8139 74.1974C44.8139 74.2684 44.8139 74.3283 44.7914 74.3844C44.0996 71.6244 43.1347 67.6939 43.015 67.4022C42.8355 66.9684 42.7607 66.9983 42.3381 67.0993C41.9155 67.2002 40.7861 67.4733 40.1167 67.5929C39.4473 67.7126 37.7457 67.9669 37.4689 67.9669C37.1922 67.9669 37.2857 68.21 37.353 68.5353C37.4054 68.7934 37.6784 69.8181 37.8878 71.1831C36.3739 71.5552 34.8355 71.8189 33.2841 71.9722C34.7426 70.2183 39.739 63.1276 39.739 63.1276C39.739 63.1276 40.7824 62.821 41.1713 62.159C41.5603 61.4971 40.9544 60.966 40.3486 60.6631C39.7427 60.3602 36.4068 58.6212 35.9469 58.3743C35.4869 58.1275 35.3971 58.2322 35.2176 58.6212C35.1054 58.868 34.0396 61.0558 32.5997 63.4642C32.0724 63.2062 31.1562 62.7162 30.0978 62.1179C30.4718 61.5906 31.403 60.3078 32.5025 58.494C33.976 56.0669 35.4682 53.6996 35.7187 53.2172C36.0329 52.6188 36.0927 52.4954 35.5729 52.3271C35.2213 52.2187 34.3574 51.9045 33.0261 51.3473C31.6947 50.7901 30.6364 50.2253 30.4082 50.1281C30.0081 49.9374 29.8847 49.9523 29.7238 50.4161C29.563 50.8798 28.4299 53.9502 27.5809 55.6518C26.919 56.9944 25.913 58.6436 25.4007 59.4514C24.3984 58.8792 23.6878 58.4753 23.6243 58.4454C23.4148 58.3519 23.2765 58.2996 23.1568 58.58C23.0371 58.8605 22.4537 59.9376 22.0348 60.693C21.616 61.4484 21.0027 62.3834 20.7259 62.7574C20.5651 62.9743 20.6249 63.1014 20.8045 63.1875C22.4592 64.1349 24.0553 65.1815 25.5839 66.3214C27.3005 67.7089 28.4224 68.6775 28.7964 69.0215C27.7605 70.3641 26.7844 71.5496 26.1785 72.2714C23.4298 72.3425 21.1822 72.3761 20.8045 72.3612C19.8957 72.3238 19.9219 72.3612 20.0565 73.2924C20.1687 73.9917 20.3744 74.8855 20.5763 76.4375C20.8493 78.5056 20.9129 79.3134 20.9503 79.8033C21.0251 80.5288 21.1747 80.4728 22.2817 80.1324C22.8763 79.9492 26.2496 79.0591 29.3873 78.2625L28.6954 101.52C28.6944 101.559 28.7012 101.598 28.7154 101.635C28.7295 101.671 28.7508 101.705 28.7779 101.733C28.8051 101.761 28.8375 101.783 28.8734 101.799C28.9094 101.814 28.948 101.823 28.9871 101.823C31.1144 101.631 33.2548 101.631 35.3821 101.823C35.4213 101.823 35.4599 101.814 35.4958 101.799C35.5317 101.783 35.5642 101.761 35.5913 101.733C35.6184 101.705 35.6397 101.671 35.6539 101.635C35.6681 101.598 35.6748 101.559 35.6738 101.52L34.9259 76.9873C36.4218 76.6881 37.5924 76.5048 38.2094 76.4113C38.3067 77.8848 38.4188 79.1302 38.445 79.4667C38.4974 80.1474 38.6133 80.196 39.2379 79.9679C39.8624 79.7398 41.2648 79.2498 42.1811 78.9469C43.0973 78.644 44.9336 78.083 45.2215 77.9783C45.5095 77.8736 45.6254 77.6043 45.4122 77.0284C45.3524 76.8601 45.1168 75.9588 44.8176 74.7845C44.9489 74.8335 45.0906 74.8477 45.229 74.8257C45.7638 74.7995 50.1094 74.4928 57.0841 74.4517V82.0397C55.358 83.3012 53.5175 84.398 51.5866 85.3158C48.8192 86.5387 43.4563 88.0645 42.7944 88.2478C42.5289 85.5551 42.2596 82.84 42.226 82.5708C42.1624 81.9986 42.11 81.9612 41.751 82.0098C41.392 82.0584 40.1765 82.1781 39.3201 82.2641C38.5722 82.3352 37.1211 82.4249 36.7546 82.4212C36.2984 82.4212 36.2909 82.5259 36.3246 83.1205C36.3582 83.7151 36.5826 85.7683 36.6985 88.0234C36.8182 90.3794 36.9342 94.5044 36.9416 94.8522C36.9491 95.2 37.0426 95.3347 37.3567 95.2823C37.6709 95.2299 39.4996 94.8148 40.5206 94.6503C41.5416 94.4857 42.7907 94.3399 42.9926 94.3062C43.1946 94.2726 43.3404 94.2239 43.3217 93.7752C43.3217 93.5732 43.1048 91.3967 42.8692 89.0107C43.1908 89.5829 43.8191 90.6674 44.3202 91.5238C44.9485 92.5971 45.6666 93.9435 45.8161 94.2426C45.9657 94.5418 45.9919 94.7064 46.4033 94.4371C46.7174 94.2352 54.3129 90.3234 57.0804 87.3839C57.1327 92.1297 57.0804 96.3332 57.0804 96.3332L51.3996 92.7019C51.3751 92.6861 51.3474 92.6762 51.3184 92.6729C51.2895 92.6696 51.2602 92.6729 51.2328 92.6826C51.2053 92.6924 51.1805 92.7083 51.1602 92.7291C51.1398 92.75 51.1245 92.7752 51.1154 92.8028L48.5985 99.9944C48.5462 100.159 48.6247 100.23 48.8005 100.256C50.5049 100.602 52.1586 101.162 53.7221 101.924C54.8682 102.472 55.982 103.085 57.0579 103.76C57.1049 103.794 57.1611 103.812 57.2188 103.812C57.2764 103.812 57.3326 103.794 57.3796 103.76L62.8397 99.6466C62.8748 99.6194 62.903 99.5841 62.9219 99.5438C62.9407 99.5035 62.9497 99.4593 62.9481 99.4148L62.2787 83.3337C63.681 85.3029 65.1865 87.1967 66.7889 89.0069C68.6324 91.065 70.6673 92.9434 72.866 94.6166C73.326 94.9121 73.614 95.0355 73.7636 94.5979C74.16 93.476 75.6783 90.5552 76.1458 89.553C76.5572 88.6778 76.5198 88.7676 75.9925 88.5058C74.3624 87.8091 72.8011 86.9615 71.329 85.974C70.7755 85.6 69.9228 84.9904 68.943 84.22C72.4397 83.1243 76.4525 79.7921 76.5834 79.665C76.6157 79.64 76.6415 79.6076 76.6584 79.5704C76.6754 79.5333 76.683 79.4926 76.6806 79.4518C76.6559 79.362 76.5985 79.2846 76.5198 79.2349C76.3702 79.1077 74.979 77.997 74.2385 77.3313ZM58.7147 61.871C56.6316 61.9084 53.6435 62.0206 53.6435 62.0206C53.5979 62.0218 53.5527 62.0119 53.5117 61.9919C53.4707 61.9719 53.4351 61.9423 53.408 61.9056C53.3808 61.8689 53.3629 61.8262 53.3557 61.7811C53.3486 61.7361 53.3523 61.69 53.3668 61.6467L54.2868 58.681C54.2868 58.681 57.2487 58.8456 59.429 58.7895C61.6093 58.7334 63.5764 58.6773 63.5764 58.6773C63.6223 58.6755 63.668 58.6849 63.7095 58.7047C63.751 58.7244 63.7871 58.754 63.8146 58.7908C63.8422 58.8275 63.8605 58.8704 63.8678 58.9158C63.8752 58.9612 63.8714 59.0076 63.8569 59.0512L63.0715 61.987C63.0715 61.987 60.7865 61.8336 58.7147 61.871Z" fill="black"/>
<path d="M50.5544 83.8722C50.906 84.1415 50.9845 84.0966 51.1416 83.9807C51.2986 83.8647 52.5777 82.8587 53.3854 82.2379C54.2905 81.5535 55.2553 80.8542 55.3825 80.7682C55.5096 80.6822 55.5844 80.6298 55.5844 80.5363C55.5844 80.4428 55.4872 80.3867 55.2778 80.2409C54.7729 79.8669 49.8588 76.0748 49.6943 75.97C49.6154 75.9106 49.5228 75.872 49.425 75.8578C49.3441 75.8578 49.2654 75.8841 49.2006 75.9326C48.9987 76.0673 47.9328 76.9199 47.2185 77.4697C46.5446 78.0008 45.839 78.4903 45.1056 78.9357C45.0557 78.9596 45.0123 78.9952 44.9791 79.0395C44.9459 79.0838 44.9238 79.1354 44.9148 79.19C44.9023 79.2429 44.9047 79.2982 44.9219 79.3497C44.9391 79.4012 44.9703 79.447 45.0121 79.4817C45.6964 80.0576 46.6464 80.7644 47.4803 81.4077C48.434 82.137 49.8813 83.3673 50.5544 83.8722Z" fill="black"/>
<path d="M87.1371 90.5963C87.2754 91.0002 87.3091 91.0002 87.9224 90.7385C88.5357 90.4767 89.25 90.0915 90.0541 89.725C90.8581 89.3585 92.298 88.6704 92.6121 88.5357C92.9262 88.4011 92.9449 88.2889 92.8178 87.9748C92.6906 87.6606 91.7632 85.4878 91.4004 84.6389C91.0377 83.7899 90.4954 82.3651 90.3458 82.0921C90.1962 81.8191 90.1513 81.7704 89.7362 81.9761C89.3211 82.1818 88.4647 82.5745 87.5559 82.9073C86.6471 83.2402 84.9381 83.6927 84.6725 83.7638C84.407 83.8348 84.2986 83.9582 84.6351 84.5753C84.8259 84.9493 85.5477 86.5088 85.9665 87.6457C86.3854 88.7825 86.9501 90.0578 87.1371 90.5963Z" fill="black"/>
<path d="M138.264 79.4518C138.239 79.362 138.182 79.2846 138.103 79.2349C137.953 79.1077 136.562 77.997 135.822 77.3313C134.973 76.5647 134.326 75.899 133.952 75.5101C133.765 75.3156 133.697 75.3044 133.596 75.3231C133.495 75.3418 133.424 75.4203 133.241 75.6484C132.401 76.6912 131.507 77.6898 130.563 78.6403C129.528 79.5917 128.421 80.4608 127.25 81.2394C125.679 79.5715 124.258 77.5856 123.604 75.3866V74.4293C130.01 74.4966 133.94 74.7808 134.449 74.8032C134.958 74.8257 135.014 74.7509 134.939 74.1712C134.883 73.7449 134.823 71.0148 135.014 70.0574C135.085 69.6835 135.115 69.403 134.786 69.403C134.457 69.403 132.059 69.5152 128.222 69.59C128.331 69.0028 128.787 66.5981 129.284 64.3543C129.804 61.9945 130.747 57.3945 131.401 55.0048C131.528 54.5373 131.319 54.3803 130.836 54.3765C129.213 54.3765 118.869 54.5111 118.57 54.1259C118.649 53.7044 118.774 53.293 118.944 52.8993C119.142 52.5665 119.658 52.357 119.886 51.8222C119.92 51.7549 119.939 51.6815 119.942 51.6065C119.946 51.5314 119.934 51.4565 119.907 51.3863C119.881 51.3161 119.84 51.2522 119.787 51.1985C119.735 51.1448 119.672 51.1025 119.602 51.0743C119.4 51.0444 115.066 50.5806 114.292 50.4797C114.273 50.4781 114.255 50.4803 114.237 50.4861C114.219 50.4919 114.203 50.5012 114.189 50.5134C114.175 50.5256 114.164 50.5405 114.156 50.5572C114.148 50.5739 114.143 50.592 114.142 50.6106C113.769 52.9163 113.27 55.1998 112.646 57.4506C112.044 59.8215 111.165 62.1135 110.028 64.2795C109.987 64.3541 109.976 64.4415 109.997 64.5241C110.018 64.6067 110.069 64.6783 110.14 64.7245L114.063 67.4433C114.11 67.473 114.163 67.4909 114.217 67.4955C114.272 67.5 114.327 67.4911 114.378 67.4695C118.17 65.8876 123.578 66.1643 123.578 66.1643L122.407 69.6984H120.672C112.526 69.6984 107.074 69.4329 106.547 69.4329C106.173 69.4329 106.247 69.7283 106.322 70.0874C106.513 71.0298 106.449 73.7598 106.393 74.2011C106.322 74.7808 106.363 74.8593 106.887 74.8332C107.41 74.807 111.767 74.5003 118.742 74.4592V82.0472C117.015 83.3078 115.175 84.4046 113.244 85.3232C111.082 86.2089 108.845 86.9035 106.561 87.3988C106.318 87.4661 106.214 87.612 106.322 87.8401C106.431 88.0683 107.313 89.6053 107.968 90.716C108.622 91.8267 109.314 93.1394 109.464 93.4386C109.613 93.7378 109.665 93.8986 110.077 93.6331C110.391 93.4311 115.967 90.3346 118.738 87.3914C118.791 92.1371 118.738 96.3407 118.738 96.3407L113.057 92.7093C113.033 92.6936 113.005 92.6837 112.976 92.6804C112.947 92.677 112.918 92.6804 112.891 92.6901C112.863 92.6999 112.838 92.7158 112.818 92.7366C112.798 92.7574 112.782 92.7826 112.773 92.8103L110.253 100.002C110.204 100.166 110.283 100.238 110.455 100.264C112.16 100.609 113.815 101.17 115.38 101.932C116.525 102.478 117.638 103.091 118.712 103.768C118.76 103.802 118.816 103.82 118.875 103.82C118.933 103.82 118.99 103.802 119.037 103.768L124.497 99.6541C124.532 99.6267 124.56 99.5913 124.578 99.5509C124.596 99.5106 124.605 99.4665 124.602 99.4222L123.937 83.3412C125.314 85.307 126.794 87.1982 128.372 89.0069C130.191 91.0557 132.194 92.9334 134.356 94.6166C134.789 94.8971 135.186 95.0317 135.339 94.5942C135.713 93.4722 137.25 90.5515 137.721 89.5492C138.133 88.6741 138.095 88.7639 137.564 88.5021C135.935 87.8059 134.375 86.9582 132.905 85.9702C132.351 85.5963 131.495 84.9867 130.519 84.2163C133.281 83.0887 135.858 81.5519 138.163 79.6575C138.193 79.6324 138.218 79.6011 138.235 79.5656C138.253 79.5301 138.262 79.4913 138.264 79.4518ZM120.795 61.8748C118.716 61.9122 116.786 62.0244 116.786 62.0244C116.74 62.0255 116.695 62.0157 116.654 61.9956C116.613 61.9756 116.578 61.946 116.55 61.9093C116.523 61.8726 116.505 61.83 116.498 61.7849C116.491 61.7398 116.495 61.6937 116.509 61.6504L117.429 58.6848C117.429 58.6848 119.333 58.8493 121.513 58.7932C123.693 58.7371 125.174 58.6773 125.174 58.6773C125.22 58.6761 125.265 58.686 125.306 58.706C125.347 58.7261 125.383 58.7557 125.41 58.7923C125.437 58.829 125.455 58.8717 125.462 58.9168C125.469 58.9618 125.466 59.008 125.451 59.0512L124.67 61.987C124.67 61.987 122.878 61.8337 120.795 61.871V61.8748Z" fill="black"/>
<path d="M109.4 81.3553C110.312 82.0472 111.532 83.2252 112.175 83.7937C112.504 84.0891 112.597 84.0255 112.755 83.9096C112.912 83.7937 114.363 82.4137 115.081 81.6657C115.799 80.9178 116.577 80.2409 116.767 80.0801C116.887 79.9828 116.932 79.9118 116.921 79.8295C116.909 79.7472 116.891 79.7285 116.708 79.549C116.464 79.3097 115.212 78.285 113.895 77.335C112.665 76.4375 111.247 75.4652 111.169 75.424C111.093 75.3638 111 75.3297 110.903 75.3268C110.816 75.3374 110.735 75.3784 110.675 75.4427C110.499 75.6035 109.591 76.5011 108.918 77.1518C108.266 77.7757 107.578 78.3601 106.857 78.902C106.711 79.0067 106.681 79.0404 106.666 79.1189C106.651 79.1975 106.696 79.2984 106.842 79.3994C107.56 79.9192 108.566 80.727 109.4 81.3553Z" fill="black"/>
<path d="M106.932 83.6029C106.992 83.1579 107.089 83.1354 106.468 83.0644C105.847 82.9933 105.271 82.9223 104 82.668C103.158 82.5286 102.328 82.3273 101.517 82.0659C101.113 81.9237 101.165 82.1481 101.083 82.5707C101 82.9933 100.709 84.3209 100.335 85.5364C99.9608 86.7518 99.6653 87.7055 99.5494 88.0495C99.4335 88.3936 99.3474 88.5207 99.7102 88.6404C100.073 88.7601 100.982 89.0667 101.991 89.3884C102.534 89.5529 103.083 89.7623 103.525 89.9493C102.941 90.1027 102.246 90.2896 101.528 90.4654C101.12 90.5664 100.122 90.8132 98.8052 91.0825L98.6182 80.6111C101.487 80.6709 104.075 80.7644 104.366 80.7719C104.808 80.7906 104.74 80.7008 104.74 80.2895C104.74 79.8781 104.658 78.8422 104.658 77.9745C104.658 77.1069 104.74 76.0224 104.763 75.6072C104.785 75.1921 104.837 75.0276 104.389 75.065C104.063 75.0912 102.264 75.2781 98.5097 75.3417L98.4611 71.4299C100.462 71.4823 102.829 71.5571 103.125 71.5496C103.57 71.5496 103.499 71.4075 103.499 71.041C103.499 70.6745 103.454 69.8293 103.435 68.9616C103.416 68.094 103.461 67.2526 103.491 66.8412C103.787 67.0506 104.007 67.2152 104.108 67.2638C104.665 67.5929 104.789 67.7238 105.137 67.0731C105.316 66.7327 105.937 65.7679 106.528 64.8815C107.025 64.1336 107.534 63.3856 107.672 63.1538C108.248 62.2113 108.188 62.2936 107.534 61.957C105.487 60.9722 103.541 59.7911 101.722 58.4304C99.583 56.74 98.1395 55.2965 98.3153 54.7579C98.5172 54.4101 98.9548 53.7108 99.2278 53.1984C99.5531 52.5889 99.2652 52.1476 98.4275 51.9194C97.5897 51.6913 94.2127 50.876 93.7378 50.7975C93.2628 50.719 93.2478 50.7339 93.1843 51.4407C93.1207 52.1476 92.5036 55.1095 89.6315 58.0452C87.5315 60.1671 85.0744 61.9027 82.3725 63.1725C81.8228 63.4081 81.9125 63.4754 82.2229 63.9204C82.5333 64.3654 82.926 64.9339 83.7974 66.1643C84.6688 67.3947 85.1512 68.2436 85.3644 68.5802C85.5775 68.9168 85.6561 69.1524 86.2432 68.6849C86.5349 68.4493 87.44 67.8547 88.5095 67.0469C88.5395 67.5069 88.5694 68.2698 88.5544 68.9803C88.5544 69.848 88.5021 70.6857 88.4908 71.0597C88.4796 71.4336 88.4273 71.5608 88.8648 71.5683C89.164 71.5683 91.6098 71.4972 93.6293 71.4449L93.562 75.3342C88.9807 75.2707 85.0091 75.0538 84.4444 75.0538C84.0442 75.0538 84.0405 75.0837 84.1003 75.596C84.1415 75.97 84.205 77.0919 84.205 77.9633C84.205 78.8347 84.1302 79.9753 84.1115 80.368C84.0928 80.7607 84.0442 80.7794 84.4855 80.7607C84.9268 80.742 89.5978 80.5662 93.461 80.5438L93.2553 91.9538C92.9113 91.9875 92.5672 92.0212 92.2231 92.0436C88.1917 92.3316 84.8745 92.3278 83.8124 92.339C82.8625 92.339 82.8512 92.2455 83.2177 93.6442C83.401 94.3286 83.6291 95.0242 83.9657 96.5501C84.3023 98.0759 84.5528 99.4933 84.6613 99.9159C84.6835 100.059 84.7378 100.196 84.8202 100.316C84.9026 100.435 85.0109 100.535 85.1371 100.607C85.2633 100.679 85.4041 100.721 85.549 100.731C85.6939 100.741 85.8392 100.718 85.974 100.664C86.7051 100.36 87.4116 100 88.0869 99.5868C90.4841 98.7677 94.0706 97.7543 96.6137 97.0661C99.5195 96.277 101.965 95.7348 103.487 95.2972C104.419 95.0317 104.983 94.8971 105.017 94.7849C105.105 93.9652 105.136 93.1405 105.11 92.3166C105.11 91.0713 105.144 90.1251 105.11 89.7736C105.368 89.0256 105.944 87.3576 106.232 86.4975C106.526 85.5483 106.76 84.5816 106.932 83.6029ZM91.7407 64.156C92.9704 62.7959 94.1098 61.3568 95.1514 59.8478C95.3234 59.5262 95.4468 59.399 95.6451 59.399C95.8433 59.399 95.9555 59.5075 96.206 59.8478C97.3351 61.3089 98.5714 62.684 99.9047 63.9615C100.757 64.7357 101.819 65.5771 102.676 66.2054C101.554 66.2765 98.0423 66.4709 96.0228 66.4822H95.9742C94.0594 66.4822 90.7945 66.2952 89.5118 66.2166C90.3071 65.5927 91.0524 64.9075 91.7407 64.1672V64.156Z" fill="black"/>
</svg>
