<svg width="127" height="120" viewBox="0 0 127 120" fill="none" xmlns="http://www.w3.org/2000/svg">
<path d="M24.2071 28.6805C49.5106 40.3824 62.1498 27.8837 65.3064 20.1717C71.6512 38.9612 87.1858 36.1587 94.1599 32.4089C92.936 48.9272 102.252 53.2681 109.785 55.9882C97.2817 64.5271 105.54 74.1947 108.882 80.0995C95.6749 77.7158 87.5061 92.4828 85.0726 100.164C70.6972 84.3892 51.8373 89.7285 44.2043 94.37C49.5004 77.2948 29.6153 66.9575 19.0107 63.9232C32.3368 51.7243 28.0275 35.3452 24.2071 28.6805Z" fill="#FF6E5A"/>
<path d="M50.2066 52.3509L48.5434 52.2243L48.1834 56.9548L47.0656 56.8697L47.412 52.3165L45.7625 52.1909L44.8756 63.8467L46.5251 63.9722L46.9577 58.2875L48.0755 58.3725L47.5994 64.6298L49.2626 64.7564L50.2066 52.3509ZM39.0985 60.8431L44.0335 61.2186L44.6424 53.2163L39.7075 52.8408L39.0985 60.8431ZM40.8245 59.6033L41.225 54.3411L42.9154 54.4698L42.515 59.7319L40.8245 59.6033ZM56.1681 55.2725L56.1816 55.0953L58.6763 55.2852L58.7821 53.8946L51.9659 53.376L51.8601 54.7665L54.4093 54.9605L54.3959 55.1377C54.2766 56.7054 53.2062 58.2488 51.0905 58.7528L51.8866 60.1845C53.3821 59.8115 54.465 58.9136 55.1241 57.7297C55.598 58.8901 56.5048 59.8572 57.8616 60.4061L58.8514 59.1102C56.8606 58.3349 56.0487 56.7511 56.1681 55.2725ZM52.66 64.7955L61.303 65.4532L61.4088 64.0627L54.5244 63.5388L54.7246 60.9078L52.966 60.774L52.66 64.7955ZM59.4746 62.0919L61.2196 62.2247L61.9022 53.2545L60.1572 53.1217L59.4746 62.0919ZM77.1842 54.4174L75.4392 54.2846L74.906 61.2917L76.651 61.4245L77.1842 54.4174ZM66.7163 57.1995C66.5867 58.9036 67.9499 60.2688 69.8857 60.4161C71.8147 60.5629 73.3688 59.4197 73.5053 57.7161C73.6333 55.9434 72.268 54.6055 70.339 54.4587C68.4032 54.3114 66.8512 55.4273 66.7163 57.1995ZM68.4204 57.3292C68.4809 56.3534 69.2329 55.8416 70.228 55.9174C71.1959 55.991 71.855 56.6102 71.7876 57.5854C71.7108 58.5051 70.9646 59.0311 69.9967 58.9574C69.0015 58.8817 68.3367 58.2484 68.4204 57.3292ZM67.9358 66.0402L76.2516 66.673L76.6084 61.9834L68.2926 61.3506L67.9358 66.0402ZM69.7593 64.7804L69.9055 62.8582L74.7996 63.2306L74.6533 65.1528L69.7593 64.7804ZM88.7046 55.2803L86.9597 55.1475L86.3922 62.6045L88.1372 62.7373L88.3665 59.7245L90.0432 59.8521L90.1501 58.448L88.4733 58.3204L88.7046 55.2803ZM78.7124 61.362L84.7243 61.8194L85.1829 55.7939L83.4379 55.6611L83.3124 57.3106L80.7767 57.1177L80.9023 55.4682L79.1709 55.3364L78.7124 61.362ZM79.6342 64.0236L86.246 64.5267L86.0157 67.5531L87.7606 67.6859L88.0957 63.2826L79.739 62.6467L79.6342 64.0236ZM80.5485 60.1168L80.674 58.4673L83.2097 58.6602L83.0842 60.3098L80.5485 60.1168ZM93.6511 56.9456L91.5517 56.7858L91.203 63.711L92.948 63.8438L93.6511 56.9456ZM90.7967 65.6271C90.7348 66.26 91.214 66.8106 91.8547 66.8593C92.4613 66.9055 93.0251 66.4342 93.0733 65.8003C93.121 65.1732 92.6351 64.6221 92.0279 64.5827C91.3877 64.5272 90.8308 64.999 90.7967 65.6271Z" fill="white"/>
</svg>
