<?xml version="1.0" encoding="UTF-8"?><svg id="_레이어_2" xmlns="http://www.w3.org/2000/svg" viewBox="0 0 7.7 7.6"><defs><style>.cls-1{fill:#251e1c;}</style></defs><g id="_레이어_1-2"><path class="cls-1" d="M4.47,6.01c0,.09,0,.47-.43,.47-.38,0-.38-.35-.38-.47V2.3l-.94,.87c-.09,.09-.24,.22-.41,.22-.24,0-.4-.26-.4-.41,0-.14,.09-.24,.21-.34l1.44-1.29c.13-.12,.28-.21,.46-.21,.06,0,.14,0,.2,.04,.25,.1,.25,.29,.25,.51V6.01Zm3.23-2.2c0-1.9-1.28-3.81-3.86-3.81S0,1.9,0,3.81s1.28,3.79,3.84,3.79,3.86-1.89,3.86-3.79"/></g></svg>