<?xml version="1.0" encoding="UTF-8"?><svg id="_레이어_2" xmlns="http://www.w3.org/2000/svg" viewBox="0 0 7.7 7.6"><defs><style>.cls-1{fill:#251e1c;}</style></defs><g id="_레이어_1-2"><path class="cls-1" d="M5.83,3.83c0-1.11-.05-1.93-.7-1.93s-.75,.82-.75,1.89,.08,1.93,.73,1.93,.71-.82,.71-1.89M2.74,1.51c0,.06,0,.11,0,.17V5.98c0,.28,0,.47-.35,.47s-.33-.23-.33-.47V2.42l-.41,.65c-.12,.19-.21,.31-.36,.31-.14,0-.38-.15-.38-.31,0-.1,.07-.2,.15-.32l.99-1.36c.12-.16,.21-.21,.32-.21,.23,0,.37,.14,.37,.32m3.81,2.29c0,.79,0,2.61-1.45,2.61s-1.42-1.82-1.42-2.61,0-2.58,1.42-2.58,1.45,1.8,1.45,2.58m1.15,.02c0-1.9-1.28-3.81-3.86-3.81S0,1.9,0,3.81s1.28,3.79,3.84,3.79,3.86-1.89,3.86-3.79"/></g></svg>