<?xml version="1.0" encoding="UTF-8"?><svg id="_레이어_2" xmlns="http://www.w3.org/2000/svg" viewBox="0 0 7.7 7.6"><defs><style>.cls-1{fill:#090000;}</style></defs><g id="_레이어_1-2"><path class="cls-1" d="M2.81,5.99c0,.2,0,.48-.36,.48-.32,0-.32-.28-.32-.48V2.46l-.42,.65c-.09,.14-.2,.31-.38,.31s-.33-.16-.33-.31c0-.11,.08-.22,.14-.31l.98-1.36c.11-.15,.24-.21,.37-.21,.33,0,.33,.3,.33,.43V5.99Zm3.15,0c0,.3-.03,.48-.34,.48-.34,0-.34-.25-.34-.48V2.48l-.43,.62c-.08,.14-.21,.29-.39,.29-.16,0-.32-.13-.32-.3,0-.13,.08-.25,.12-.31l.97-1.36c.1-.15,.25-.21,.38-.21,.34,0,.34,.31,.34,.64V5.99Zm1.74-2.18c0-1.9-1.28-3.81-3.86-3.81S0,1.9,0,3.81s1.28,3.79,3.84,3.79,3.86-1.89,3.86-3.79"/></g></svg>