<?xml version="1.0" encoding="UTF-8"?><svg id="_레이어_2" xmlns="http://www.w3.org/2000/svg" viewBox="0 0 7.7 7.6"><defs><style>.cls-1{fill:#090000;}</style></defs><g id="_레이어_1-2"><path class="cls-1" d="M5.97,5.95c0,.25-.15,.38-.4,.38H2.48c-.28,0-.53-.13-.6-.41,0-.05,0-.09,0-.15,0-.69,.6-1.64,1.78-2.04,.84-.28,1.4-.43,1.4-1.06,0-.69-.54-.88-1.12-.88-.32,0-1.1,.02-1.35,1.04-.04,.18-.2,.26-.36,.26-.23,0-.47-.15-.47-.37,0-.43,.65-1.68,2.11-1.68,1.02,0,2.04,.57,2.04,1.56s-.6,1.4-1.87,1.77c-1.24,.36-1.27,1.22-1.27,1.22h2.78c.32,0,.41,.15,.41,.36m1.73-2.14c0-1.9-1.28-3.81-3.86-3.81S0,1.9,0,3.81s1.28,3.79,3.84,3.79,3.86-1.89,3.86-3.79"/></g></svg>