<?xml version="1.0" encoding="UTF-8"?><svg id="_레이어_2" xmlns="http://www.w3.org/2000/svg" viewBox="0 0 7.7 7.6"><defs><style>.cls-1{fill:#090000;}</style></defs><g id="_레이어_1-2"><path class="cls-1" d="M6.01,4.93c0,1.16-1.25,1.58-2.02,1.58-2,0-2.25-1.5-2.25-1.61,0-.24,.2-.37,.41-.37,.17,0,.35,.1,.4,.31,.1,.74,.9,.9,1.36,.9,.67,0,1.33-.22,1.33-.87,0-.57-.32-.73-.99-.73-.19,0-.37,0-.54,0-.48,0-.48-.31-.48-.38,0-.2,.13-.38,.39-.39,.09,0,.21,0,.32,0,.47,0,1.09-.08,1.08-.77,0-.59-.5-.79-1.19-.79-.81,0-1.11,.55-1.19,.67-.11,.16-.26,.23-.39,.23-.2,0-.39-.15-.39-.33,0-.22,.48-1.27,1.93-1.28,1.04,0,2.01,.44,2.01,1.55,0,.68-.51,.95-.64,1.01,.26,.08,.86,.41,.86,1.26m1.69-1.12c0-1.9-1.28-3.81-3.86-3.81S0,1.9,0,3.81s1.28,3.79,3.84,3.79,3.86-1.89,3.86-3.79"/></g></svg>