<?xml version="1.0" encoding="UTF-8"?><svg id="_레이어_2" xmlns="http://www.w3.org/2000/svg" viewBox="0 0 7.7 7.6"><defs><style>.cls-1{fill:#251e1c;}</style></defs><g id="_레이어_1-2"><path class="cls-1" d="M4.22,4.51V2.1l-1.79,2.41h1.79Zm1.78,.38c0,.29-.18,.35-.34,.35h-.64v.97c0,.24-.12,.37-.4,.37s-.4-.14-.4-.37v-.97h-1.75c-.48,0-.66,0-.82-.21-.07-.12-.1-.22-.1-.32,0-.19,.09-.37,.26-.59L3.99,1.34c.16-.21,.33-.34,.54-.34,.08,0,.15,.02,.25,.05,.25,.09,.25,.36,.25,.65v2.81h.63c.18,0,.36,.07,.35,.38m1.7-1.08c0-1.9-1.28-3.81-3.86-3.81S0,1.9,0,3.81s1.28,3.79,3.84,3.79,3.86-1.89,3.86-3.79"/></g></svg>