<?xml version="1.0" encoding="UTF-8"?><svg id="_레이어_2" xmlns="http://www.w3.org/2000/svg" viewBox="0 0 7.7 7.6"><defs><style>.cls-1{fill:#251e1c;}</style></defs><g id="_레이어_1-2"><path class="cls-1" d="M5.88,4.61c0,1.22-.99,1.92-2.04,1.92-1.23,0-1.83-.65-2.02-.96-.02-.04-.03-.08-.03-.13,0-.23,.24-.43,.44-.43,.09,0,.18,.03,.24,.13,.33,.41,.83,.61,1.36,.61,1.14,0,1.24-.73,1.24-1.02,0-.76-.45-1.19-1.09-1.2-.64,0-.92,.26-1.15,.54-.19,.15-.23,.33-.53,.33-.43,0-.52-.25-.52-.62l.17-1.84c.05-.58,.31-.64,.81-.64h2.4c.26,.03,.4,.2,.4,.38s-.13,.35-.37,.35H3.11c-.31,0-.42,.08-.43,.31l-.08,1.02c.22-.15,.6-.56,1.32-.56,1.22,0,1.96,.77,1.96,1.8m1.82-.8c0-1.9-1.28-3.81-3.86-3.81S0,1.9,0,3.81s1.28,3.79,3.84,3.79,3.86-1.89,3.86-3.79"/></g></svg>