<?xml version="1.0" encoding="UTF-8"?><svg id="_레이어_2" xmlns="http://www.w3.org/2000/svg" viewBox="0 0 7.7 7.6"><defs><style>.cls-1{fill:#251e1c;}</style></defs><g id="_레이어_1-2"><path class="cls-1" d="M5.09,4.77c0-.48-.37-.94-1.23-.95-.75,0-1.17,.61-1.17,.85,.02,.74,.59,1.13,1.22,1.13,.72,0,1.17-.26,1.17-1.03m.79,.03c0,1.27-1.11,1.73-1.92,1.73-1.56,0-2.18-1.3-2.18-2.65,0-1.7,.98-2.76,2.17-2.76,.94,0,1.45,.38,1.79,.75,.09,.1,.13,.21,.13,.31,0,.24-.2,.44-.42,.44-.09,0-.18-.03-.26-.11-.36-.46-.62-.64-1.26-.64s-1.36,.62-1.42,1.83c.24-.24,.73-.63,1.35-.63,1.39,0,2,.82,2.01,1.73m1.82-.99c0-1.9-1.28-3.81-3.86-3.81S0,1.9,0,3.81s1.28,3.79,3.84,3.79,3.86-1.89,3.86-3.79"/></g></svg>