<?xml version="1.0" encoding="UTF-8"?><svg id="_레이어_2" xmlns="http://www.w3.org/2000/svg" viewBox="0 0 7.7 7.6"><defs><style>.cls-1{fill:#090000;}</style></defs><g id="_레이어_1-2"><path class="cls-1" d="M5.96,2.01c0,.12-.09,.22-.17,.37l-2.25,3.98c-.08,.12-.21,.2-.36,.2s-.48-.13-.48-.41c0-.09,.02-.16,.08-.25l2.07-3.54H2.29c-.32,0-.45-.12-.45-.42s.21-.38,.43-.38h2.94c.28,0,.47,0,.66,.21,.07,.09,.09,.15,.09,.23m1.74,1.79c0-1.9-1.28-3.81-3.86-3.81S0,1.9,0,3.81s1.28,3.79,3.84,3.79,3.86-1.89,3.86-3.79"/></g></svg>