<?xml version="1.0" encoding="UTF-8"?><svg id="_레이어_2" xmlns="http://www.w3.org/2000/svg" viewBox="0 0 7.7 7.6"><defs><style>.cls-1{fill:#251e1c;}</style></defs><g id="_레이어_1-2"><path class="cls-1" d="M5.11,4.89c0-.68-.83-.83-1.28-.83s-1.26,.15-1.26,.83,.8,.84,1.26,.84,1.28-.15,1.28-.84m-.17-2.27c0-.58-.68-.77-1.1-.77s-1.05,.2-1.05,.77,.63,.77,1.05,.77,1.1-.2,1.1-.77m.96,2.36c0,.97-.93,1.5-2.07,1.5-1.07,0-2.07-.49-2.07-1.54,0-.79,.75-1.22,1.02-1.24-.14-.07-.81-.36-.81-1.19,0-.92,.85-1.37,1.85-1.37,1.13,0,1.89,.47,1.88,1.52,0,.65-.46,.97-.76,1.07,.35,.15,.96,.38,.96,1.25m1.8-1.17c0-1.9-1.28-3.81-3.86-3.81S0,1.9,0,3.81s1.28,3.79,3.84,3.79,3.86-1.89,3.86-3.79"/></g></svg>