<?xml version="1.0" encoding="UTF-8"?><svg id="_레이어_2" xmlns="http://www.w3.org/2000/svg" viewBox="0 0 7.7 7.6"><defs><style>.cls-1{fill:#251e1c;}</style></defs><g id="_레이어_1-2"><path class="cls-1" d="M4.98,2.85c-.02-.64-.69-.99-1.23-.99s-1.2,.31-1.2,.97,.6,.97,1.2,.97c.54,0,1.26-.28,1.23-.95m.93,1.09c0,1.56-.98,2.57-2.22,2.57-.76,0-1.4-.28-1.9-.93-.08-.11-.11-.22-.11-.31,0-.23,.2-.37,.39-.37,.12,0,.24,.05,.32,.18,.29,.39,.68,.7,1.32,.7,.77,0,1.4-.52,1.41-1.85-.13,.15-.58,.63-1.49,.63s-1.88-.6-1.88-1.7,1.11-1.73,1.95-1.73c1.18,0,2.21,.65,2.21,2.83m1.79-.13c0-1.9-1.28-3.81-3.86-3.81S0,1.9,0,3.81s1.28,3.79,3.84,3.79,3.86-1.89,3.86-3.79"/></g></svg>