<?xml version="1.0" encoding="UTF-8"?><svg id="_레이어_2" xmlns="http://www.w3.org/2000/svg" viewBox="0 0 6.72 3.26"><defs><style>.cls-1{fill:#090000;}</style></defs><g id="_레이어_1-2"><path class="cls-1" d="M1.05,1.62c0-.29-.22-.53-.52-.53s-.53,.24-.53,.53,.23,.52,.53,.52,.52-.23,.52-.52"/><path class="cls-1" d="M4.57,1.62c0-.29-.24-.53-.54-.53-.28,0-.53,.24-.53,.53s.25,.52,.53,.52c.3,0,.54-.23,.54-.52"/><path class="cls-1" d="M2.81,1.62c0-.29-.24-.53-.51-.53-.3,0-.54,.24-.54,.53s.25,.52,.54,.52c.27,0,.51-.23,.51-.52"/><polygon class="cls-1" points="5.24 0 5.24 3.26 6.72 1.62 5.24 0"/></g></svg>