<?xml version="1.0" encoding="UTF-8"?><svg id="_레이어_2" xmlns="http://www.w3.org/2000/svg" viewBox="0 0 87.85 152.65"><defs><style>.cls-1{fill:#251e1c;}.cls-2{fill:none;stroke:#090000;stroke-miterlimit:10;stroke-width:.75px;}</style></defs><g id="_레이어_1-2"><path class="cls-1" d="M55.43,91.92c0,1.16-1.25,1.58-2.02,1.58-2,0-2.25-1.5-2.25-1.61,0-.24,.2-.37,.41-.37,.17,0,.35,.1,.4,.32,.1,.74,.9,.9,1.36,.9,.67,0,1.33-.22,1.33-.87,0-.57-.32-.73-.99-.73-.19,0-.37,0-.54,0-.48,0-.48-.31-.48-.38,0-.2,.14-.38,.39-.39,.08,0,.2,0,.32,0,.47,0,1.09-.08,1.08-.77,0-.59-.5-.79-1.19-.79-.81,0-1.11,.55-1.19,.67-.11,.16-.26,.23-.39,.23-.2,0-.39-.15-.39-.33,0-.22,.48-1.28,1.93-1.28,1.04,0,2.01,.44,2.01,1.55,0,.68-.51,.95-.64,1.01,.26,.08,.86,.41,.86,1.26m1.69-1.12c0-1.9-1.28-3.81-3.86-3.81s-3.84,1.9-3.84,3.81,1.28,3.79,3.84,3.79,3.86-1.89,3.86-3.79"/><path class="cls-1" d="M47.34,100.54c0,.25-.15,.38-.4,.38h-3.09c-.28,0-.53-.13-.6-.41,0-.05,0-.09,0-.15,0-.69,.6-1.64,1.79-2.04,.84-.28,1.4-.43,1.4-1.06,0-.69-.54-.88-1.12-.88-.32,0-1.1,.02-1.35,1.04-.04,.18-.2,.25-.36,.25-.23,0-.47-.14-.47-.37,0-.43,.65-1.68,2.11-1.68,1.02,0,2.04,.57,2.04,1.56s-.6,1.4-1.87,1.77c-1.24,.36-1.27,1.22-1.27,1.22h2.78c.31,0,.41,.15,.41,.36m1.73-2.14c0-1.9-1.28-3.81-3.86-3.81s-3.84,1.9-3.84,3.81,1.28,3.79,3.84,3.79,3.86-1.89,3.86-3.79"/><path class="cls-1" d="M50.3,117.58c0,.09,0,.47-.43,.47-.38,0-.38-.35-.38-.47v-3.71l-.94,.87c-.09,.08-.24,.22-.41,.22-.24,0-.4-.26-.4-.41,0-.14,.09-.24,.21-.34l1.44-1.29c.13-.12,.28-.21,.46-.21,.06,0,.14,0,.2,.04,.25,.1,.25,.29,.25,.51v4.33Zm3.23-2.2c0-1.9-1.28-3.81-3.86-3.81s-3.84,1.9-3.84,3.81,1.28,3.79,3.84,3.79,3.86-1.89,3.86-3.79"/><path class="cls-2" d="M62.51,48.44l11.05,3.86m-11.05-11.6l11.05,3.86m-11.05-11.6l11.05,3.86m-11.05-11.6l11.05,3.86m-11.05-11.6l11.05,3.86m-11.05-11.6l11.05,3.86m-5.73,79.49h12.54v35.25M32.25,.38h0ZM15.93,140.41H63.14v-12.07h17.23v23.93m0-52.1h-12.54v15.02h12.54m-17.18,37.09H.38V.38H87.48V64.59h-19.64v28.5h1.42"/><path class="cls-2" d="M39.07,105.05h20.71v20.66h-20.71v-20.66Zm0-20.66h20.71v20.66h-20.71v-20.66Z"/><path class="cls-1" d="M10.96,85.96c0-.48-.37-.94-1.23-.95-.75,0-1.17,.61-1.16,.85,.02,.74,.59,1.13,1.22,1.13,.72,0,1.17-.26,1.17-1.03m.79,.03c0,1.27-1.11,1.73-1.92,1.73-1.56,0-2.18-1.3-2.18-2.65,0-1.7,.99-2.76,2.18-2.76,.94,0,1.44,.38,1.79,.75,.09,.1,.13,.21,.13,.31,0,.24-.2,.44-.42,.44-.09,0-.18-.03-.26-.11-.36-.46-.62-.64-1.26-.64s-1.36,.62-1.42,1.83c.24-.24,.73-.63,1.35-.63,1.39,0,2,.82,2.01,1.73m1.82-.99c0-1.9-1.28-3.81-3.86-3.81s-3.84,1.9-3.84,3.81,1.28,3.79,3.84,3.79,3.86-1.89,3.86-3.79"/><path class="cls-1" d="M11.75,104.57c0,1.22-.99,1.92-2.04,1.92-1.23,0-1.83-.65-2.02-.96-.02-.04-.03-.08-.03-.13,0-.23,.24-.43,.44-.43,.09,0,.18,.03,.24,.13,.33,.41,.83,.61,1.36,.61,1.14,0,1.24-.73,1.24-1.02,0-.76-.45-1.19-1.09-1.2-.64,0-.92,.26-1.15,.53-.19,.15-.23,.33-.53,.33-.43,0-.52-.25-.52-.62l.17-1.84c.05-.58,.31-.64,.81-.64h2.41c.26,.02,.4,.2,.4,.38s-.13,.35-.37,.35h-2.09c-.31,0-.42,.08-.43,.31l-.08,1.02c.22-.15,.6-.56,1.33-.56,1.22,0,1.96,.77,1.96,1.8m1.82-.8c0-1.9-1.28-3.81-3.86-3.81s-3.84,1.9-3.84,3.81,1.28,3.79,3.84,3.79,3.86-1.89,3.86-3.79"/><path class="cls-1" d="M10.09,122.99v-2.41l-1.79,2.41h1.79Zm1.78,.38c0,.29-.18,.35-.34,.35h-.64v.97c0,.24-.12,.36-.4,.36s-.4-.14-.4-.36v-.97h-1.75c-.49,0-.66,0-.82-.21-.07-.12-.1-.22-.1-.32,0-.19,.09-.37,.26-.59l2.17-2.78c.16-.21,.33-.34,.54-.34,.08,0,.15,.02,.25,.05,.25,.09,.25,.36,.25,.65v2.81h.63c.18,0,.36,.07,.35,.38m1.7-1.08c0-1.9-1.28-3.81-3.86-3.81s-3.84,1.9-3.84,3.81,1.28,3.79,3.84,3.79,3.86-1.89,3.86-3.79"/><path class="cls-1" d="M37.44,49.65c0,.2,0,.48-.36,.48-.32,0-.32-.28-.32-.48v-3.54l-.42,.65c-.09,.14-.2,.31-.38,.31s-.33-.16-.33-.31c0-.11,.08-.22,.14-.31l.98-1.36c.11-.15,.24-.21,.37-.21,.33,0,.33,.3,.33,.43v4.34Zm3.15,0c0,.3-.03,.48-.34,.48-.34,0-.34-.25-.34-.48v-3.51l-.42,.62c-.08,.14-.21,.29-.39,.29-.16,0-.32-.13-.32-.3,0-.13,.08-.25,.12-.31l.97-1.36c.1-.15,.25-.21,.38-.21,.34,0,.34,.31,.34,.64v4.14Zm1.74-2.18c0-1.9-1.28-3.81-3.86-3.81s-3.84,1.9-3.84,3.81,1.28,3.79,3.84,3.79,3.86-1.89,3.86-3.79"/><path class="cls-1" d="M40.7,9.94c0-1.11-.05-1.93-.7-1.93s-.75,.82-.75,1.89,.08,1.93,.73,1.93,.71-.82,.71-1.89m-3.09-2.32c0,.06,0,.11,0,.17v4.3c0,.28,0,.47-.35,.47s-.33-.23-.33-.47v-3.55l-.41,.65c-.12,.19-.21,.31-.36,.31-.14,0-.38-.15-.38-.31,0-.1,.07-.2,.15-.32l.99-1.36c.12-.16,.21-.21,.32-.21,.23,0,.37,.14,.37,.32m3.81,2.29c0,.79,0,2.61-1.44,2.61s-1.42-1.82-1.42-2.61,0-2.58,1.42-2.58,1.44,1.8,1.44,2.58m1.15,.02c0-1.9-1.28-3.81-3.86-3.81s-3.84,1.9-3.84,3.81,1.28,3.79,3.84,3.79,3.86-1.89,3.86-3.79"/><path class="cls-1" d="M10.85,27.73c-.02-.64-.69-.99-1.23-.99s-1.2,.31-1.2,.97,.6,.97,1.2,.97c.54,0,1.26-.28,1.23-.95m.93,1.09c0,1.56-.98,2.57-2.22,2.57-.76,0-1.4-.28-1.9-.93-.08-.11-.11-.22-.11-.31,0-.23,.2-.37,.39-.37,.12,0,.24,.05,.32,.18,.29,.39,.68,.7,1.32,.7,.77,0,1.4-.52,1.41-1.85-.13,.15-.58,.63-1.49,.63s-1.88-.6-1.88-1.7,1.11-1.73,1.96-1.73c1.18,0,2.21,.65,2.21,2.83m1.79-.13c0-1.9-1.28-3.81-3.86-3.81s-3.84,1.9-3.84,3.81,1.28,3.79,3.84,3.79,3.86-1.89,3.86-3.79"/><path class="cls-1" d="M10.97,48.54c0-.68-.82-.83-1.28-.83s-1.26,.15-1.26,.83,.8,.84,1.26,.84,1.28-.15,1.28-.84m-.17-2.27c0-.58-.68-.77-1.1-.77s-1.05,.2-1.05,.77,.63,.77,1.05,.77,1.1-.2,1.1-.77m.96,2.36c0,.97-.93,1.5-2.07,1.5-1.07,0-2.07-.49-2.07-1.54,0-.79,.75-1.22,1.02-1.24-.14-.07-.81-.36-.81-1.19,0-.92,.85-1.37,1.85-1.37,1.13,0,1.89,.47,1.88,1.52,0,.65-.46,.97-.76,1.07,.35,.15,.96,.38,.96,1.25m1.8-1.17c0-1.9-1.28-3.81-3.86-3.81s-3.84,1.9-3.84,3.81,1.28,3.79,3.84,3.79,3.86-1.89,3.86-3.79"/><path class="cls-1" d="M11.82,64.44c0,.12-.09,.22-.17,.37l-2.25,3.98c-.08,.12-.21,.2-.36,.2s-.48-.13-.48-.41c0-.09,.03-.16,.08-.25l2.07-3.54h-2.57c-.32,0-.45-.12-.45-.42s.21-.38,.43-.38h2.94c.28,0,.47,0,.66,.21,.07,.09,.09,.15,.09,.23m1.74,1.79c0-1.9-1.28-3.81-3.86-3.81s-3.84,1.9-3.84,3.81,1.28,3.79,3.84,3.79,3.86-1.89,3.86-3.79"/></g></svg>